<?xml version="1.0" encoding="UTF-8" standalone="no"?>
<svg
   xmlns:dc="http://purl.org/dc/elements/1.1/"
   xmlns:cc="http://creativecommons.org/ns#"
   xmlns:rdf="http://www.w3.org/1999/02/22-rdf-syntax-ns#"
   xmlns:svg="http://www.w3.org/2000/svg"
   xmlns="http://www.w3.org/2000/svg"
   xmlns:sodipodi="http://sodipodi.sourceforge.net/DTD/sodipodi-0.dtd"
   xmlns:inkscape="http://www.inkscape.org/namespaces/inkscape"
   version="1.1"
   width="269.16196"
   height="269.16196"
   id="svg11"
   sodipodi:docname="qrcode.svg"
   inkscape:version="1.0 (1.0+r73+1)">
  <metadata
     id="metadata17">
    <rdf:RDF>
      <cc:Work
         rdf:about="">
        <dc:format>image/svg+xml</dc:format>
        <dc:type
           rdf:resource="http://purl.org/dc/dcmitype/StillImage" />
      </cc:Work>
    </rdf:RDF>
  </metadata>
  <defs
     id="defs15" />
  <sodipodi:namedview
     inkscape:document-rotation="0"
     pagecolor="#ffffff"
     bordercolor="#666666"
     borderopacity="1"
     objecttolerance="10"
     gridtolerance="10"
     guidetolerance="10"
     inkscape:pageopacity="0"
     inkscape:pageshadow="2"
     inkscape:window-width="1853"
     inkscape:window-height="1025"
     id="namedview13"
     showgrid="false"
     inkscape:zoom="2.8629032"
     inkscape:cx="134.58098"
     inkscape:cy="133.35844"
     inkscape:window-x="67"
     inkscape:window-y="27"
     inkscape:window-maximized="1"
     inkscape:current-layer="svg11" />
  <!-- Created with https://api.qrserver.com (QR Code API, see goQR.me/api for information) -->
  <title
     id="title2">QR Code</title>
  <rect
     ry="22.086489"
     id="rect844"
     height="269.16196"
     width="269.16196"
     y="0"
     x="0"
     style="fill:#000000;fill-opacity:1;stroke-width:1.08532" />
  <desc
     id="desc4">https://trucomanx.github.io/aulicha</desc>
  <rect
     style="fill:#ffffff;fill-opacity:1;stroke-width:1.03225"
     x="6.5809784"
     y="6.5809784"
     width="256"
     height="256"
     id="rect6"
     ry="16.340136" />
  <g
     transform="translate(10.580978,10.580978)"
     id="elements">
    <path
       style="fill:#000000"
       d="m 8,8 h 8 v 8 H 8 Z m 8,0 h 8 v 8 h -8 z m 8,0 h 8 v 8 h -8 z m 8,0 h 8 v 8 h -8 z m 8,0 h 8 v 8 h -8 z m 8,0 h 8 v 8 h -8 z m 8,0 h 8 v 8 h -8 z m 24,0 h 8 v 8 h -8 z m 48,0 h 8 v 8 h -8 z m 8,0 h 8 v 8 h -8 z m 24,0 h 8 v 8 h -8 z m 8,0 h 8 v 8 h -8 z m 16,0 h 8 v 8 h -8 z m 8,0 h 8 v 8 h -8 z m 8,0 h 8 v 8 h -8 z m 8,0 h 8 v 8 h -8 z m 8,0 h 8 v 8 h -8 z m 8,0 h 8 v 8 h -8 z m 8,0 h 8 v 8 h -8 z M 8,16 h 8 v 8 H 8 Z m 48,0 h 8 v 8 h -8 z m 16,0 h 8 v 8 h -8 z m 8,0 h 8 v 8 h -8 z m 16,0 h 8 v 8 h -8 z m 8,0 h 8 v 8 h -8 z m 80,0 h 8 v 8 h -8 z m 48,0 h 8 v 8 h -8 z M 8,24 h 8 v 8 H 8 Z m 16,0 h 8 v 8 h -8 z m 8,0 h 8 v 8 h -8 z m 8,0 h 8 v 8 h -8 z m 16,0 h 8 v 8 h -8 z m 24,0 h 8 v 8 h -8 z m 8,0 h 8 v 8 h -8 z m 8,0 h 8 v 8 h -8 z m 24,0 h 8 v 8 h -8 z m 16,0 h 8 v 8 h -8 z m 48,0 h 8 v 8 h -8 z m 16,0 h 8 v 8 h -8 z m 8,0 h 8 v 8 h -8 z m 8,0 h 8 v 8 h -8 z m 16,0 h 8 v 8 h -8 z M 8,32 h 8 v 8 H 8 Z m 16,0 h 8 v 8 h -8 z m 8,0 h 8 v 8 h -8 z m 8,0 h 8 v 8 h -8 z m 16,0 h 8 v 8 h -8 z m 16,0 h 8 v 8 h -8 z m 8,0 h 8 v 8 h -8 z m 16,0 h 8 v 8 h -8 z m 48,0 h 8 v 8 h -8 z m 16,0 h 8 v 8 h -8 z m 24,0 h 8 v 8 h -8 z m 16,0 h 8 v 8 h -8 z m 8,0 h 8 v 8 h -8 z m 8,0 h 8 v 8 h -8 z m 16,0 h 8 v 8 h -8 z M 8,40 h 8 v 8 H 8 Z m 16,0 h 8 v 8 h -8 z m 8,0 h 8 v 8 h -8 z m 8,0 h 8 v 8 h -8 z m 16,0 h 8 v 8 h -8 z m 32,0 h 8 v 8 h -8 z m 16,0 h 8 v 8 h -8 z m 8,0 h 8 v 8 h -8 z m 8,0 h 8 v 8 h -8 z m 8,0 h 8 v 8 h -8 z m 24,0 h 8 v 8 h -8 z m 8,0 h 8 v 8 h -8 z m 8,0 h 8 v 8 h -8 z m 16,0 h 8 v 8 h -8 z m 16,0 h 8 v 8 h -8 z m 8,0 h 8 v 8 h -8 z m 8,0 h 8 v 8 h -8 z m 16,0 h 8 v 8 h -8 z M 8,48 h 8 v 8 H 8 Z m 48,0 h 8 v 8 h -8 z m 16,0 h 8 v 8 h -8 z m 16,0 h 8 v 8 h -8 z m 24,0 h 8 v 8 h -8 z m 8,0 h 8 v 8 h -8 z m 8,0 h 8 v 8 h -8 z m 8,0 h 8 v 8 h -8 z m 8,0 h 8 v 8 h -8 z m 8,0 h 8 v 8 h -8 z m 32,0 h 8 v 8 h -8 z m 48,0 h 8 v 8 h -8 z M 8,56 h 8 v 8 H 8 Z m 8,0 h 8 v 8 h -8 z m 8,0 h 8 v 8 h -8 z m 8,0 h 8 v 8 h -8 z m 8,0 h 8 v 8 h -8 z m 8,0 h 8 v 8 h -8 z m 8,0 h 8 v 8 h -8 z m 16,0 h 8 v 8 h -8 z m 16,0 h 8 v 8 h -8 z m 16,0 h 8 v 8 h -8 z m 16,0 h 8 v 8 h -8 z m 16,0 h 8 v 8 h -8 z m 16,0 h 8 v 8 h -8 z m 16,0 h 8 v 8 h -8 z m 16,0 h 8 v 8 h -8 z m 8,0 h 8 v 8 h -8 z m 8,0 h 8 v 8 h -8 z m 8,0 h 8 v 8 h -8 z m 8,0 h 8 v 8 h -8 z m 8,0 h 8 v 8 h -8 z m 8,0 h 8 v 8 h -8 z m -128,8 h 8 v 8 h -8 z m 8,0 h 8 v 8 h -8 z m 16,0 h 8 v 8 h -8 z m 24,0 h 8 v 8 h -8 z m 16,0 h 8 v 8 h -8 z M 8,72 h 8 v 8 H 8 Z m 8,0 h 8 v 8 h -8 z m 8,0 h 8 v 8 h -8 z m 8,0 h 8 v 8 h -8 z m 8,0 h 8 v 8 h -8 z m 16,0 h 8 v 8 h -8 z m 8,0 h 8 v 8 h -8 z m 8,0 h 8 v 8 h -8 z m 8,0 h 8 v 8 h -8 z m 8,0 h 8 v 8 h -8 z m 16,0 h 8 v 8 h -8 z m 16,0 h 8 v 8 h -8 z m 8,0 h 8 v 8 h -8 z m 16,0 h 8 v 8 h -8 z m 8,0 h 8 v 8 h -8 z m 16,0 h 8 v 8 h -8 z m 8,0 h 8 v 8 h -8 z m 16,0 h 8 v 8 h -8 z m 16,0 h 8 v 8 h -8 z m 16,0 h 8 v 8 h -8 z M 16,80 h 8 v 8 h -8 z m 8,0 h 8 v 8 h -8 z m 24,0 h 8 v 8 h -8 z m 16,0 h 8 v 8 h -8 z m 8,0 h 8 v 8 h -8 z m 8,0 h 8 v 8 h -8 z m 56,0 h 8 v 8 h -8 z m 8,0 h 8 v 8 h -8 z m 8,0 h 8 v 8 h -8 z m 8,0 h 8 v 8 h -8 z m 8,0 h 8 v 8 h -8 z m 8,0 h 8 v 8 h -8 z m 8,0 h 8 v 8 h -8 z m 8,0 h 8 v 8 h -8 z m 8,0 h 8 v 8 h -8 z m 32,0 h 8 v 8 h -8 z M 8,88 h 8 v 8 H 8 Z m 24,0 h 8 v 8 h -8 z m 24,0 h 8 v 8 h -8 z m 8,0 h 8 v 8 h -8 z m 8,0 h 8 v 8 h -8 z m 8,0 h 8 v 8 h -8 z m 16,0 h 8 v 8 h -8 z m 8,0 h 8 v 8 h -8 z m 24,0 h 8 v 8 h -8 z m 16,0 h 8 v 8 h -8 z m 24,0 h 8 v 8 h -8 z m 16,0 h 8 v 8 h -8 z m 8,0 h 8 v 8 h -8 z M 16,96 h 8 v 8 h -8 z m 16,0 h 8 v 8 h -8 z m 8,0 h 8 v 8 h -8 z m 24,0 h 8 v 8 h -8 z m 16,0 h 8 v 8 h -8 z m 8,0 h 8 v 8 h -8 z m 8,0 h 8 v 8 h -8 z m 24,0 h 8 v 8 h -8 z m 8,0 h 8 v 8 h -8 z m 24,0 h 8 v 8 h -8 z m 32,0 h 8 v 8 h -8 z m 16,0 h 8 v 8 h -8 z m 8,0 h 8 v 8 h -8 z m 16,0 h 8 v 8 h -8 z m -208,8 h 8 v 8 h -8 z m 16,0 h 8 v 8 h -8 z m 16,0 h 8 v 8 h -8 z m 8,0 h 8 v 8 h -8 z m 24,0 h 8 v 8 h -8 z m 16,0 h 8 v 8 h -8 z m 48,0 h 8 v 8 h -8 z m 16,0 h 8 v 8 h -8 z m 48,0 h 8 v 8 h -8 z m 8,0 h 8 v 8 h -8 z m -192,8 h 8 v 8 h -8 z m 8,0 h 8 v 8 h -8 z m 16,0 h 8 v 8 h -8 z m 16,0 h 8 v 8 h -8 z m 16,0 h 8 v 8 h -8 z m 8,0 h 8 v 8 h -8 z m 16,0 h 8 v 8 h -8 z m 8,0 h 8 v 8 h -8 z m 8,0 h 8 v 8 h -8 z m 16,0 h 8 v 8 h -8 z m 8,0 h 8 v 8 h -8 z m 8,0 h 8 v 8 h -8 z m 8,0 h 8 v 8 h -8 z m 8,0 h 8 v 8 h -8 z m 8,0 h 8 v 8 h -8 z m 8,0 h 8 v 8 h -8 z m 8,0 h 8 v 8 h -8 z m 8,0 h 8 v 8 h -8 z m 32,0 h 8 v 8 h -8 z m -208,8 h 8 v 8 h -8 z m 8,0 h 8 v 8 h -8 z m 8,0 h 8 v 8 h -8 z m 16,0 h 8 v 8 h -8 z m 8,0 h 8 v 8 h -8 z m 8,0 h 8 v 8 h -8 z m 8,0 h 8 v 8 h -8 z m 8,0 h 8 v 8 h -8 z m 24,0 h 8 v 8 h -8 z m 8,0 h 8 v 8 h -8 z m 8,0 h 8 v 8 h -8 z m 8,0 h 8 v 8 h -8 z m 16,0 h 8 v 8 h -8 z m 16,0 h 8 v 8 h -8 z m 16,0 h 8 v 8 h -8 z m 8,0 h 8 v 8 h -8 z m 8,0 h 8 v 8 h -8 z m 8,0 h 8 v 8 h -8 z m 8,0 h 8 v 8 h -8 z M 8,128 h 8 v 8 H 8 Z m 24,0 h 8 v 8 h -8 z m 48,0 h 8 v 8 h -8 z m 24,0 h 8 v 8 h -8 z m 8,0 h 8 v 8 h -8 z m 48,0 h 8 v 8 h -8 z m 8,0 h 8 v 8 h -8 z m 24,0 h 8 v 8 h -8 z m 8,0 h 8 v 8 h -8 z m 24,0 h 8 v 8 h -8 z m -208,8 h 8 v 8 h -8 z m 8,0 h 8 v 8 h -8 z m 16,0 h 8 v 8 h -8 z m 16,0 h 8 v 8 h -8 z m 24,0 h 8 v 8 h -8 z m 8,0 h 8 v 8 h -8 z m 16,0 h 8 v 8 h -8 z m 16,0 h 8 v 8 h -8 z m 8,0 h 8 v 8 h -8 z m 16,0 h 8 v 8 h -8 z m 48,0 h 8 v 8 h -8 z m 16,0 h 8 v 8 h -8 z m 8,0 h 8 v 8 h -8 z M 8,144 h 8 v 8 H 8 Z m 8,0 h 8 v 8 h -8 z m 32,0 h 8 v 8 h -8 z m 24,0 h 8 v 8 h -8 z m 8,0 h 8 v 8 h -8 z m 8,0 h 8 v 8 h -8 z m 48,0 h 8 v 8 h -8 z m 8,0 h 8 v 8 h -8 z m 8,0 h 8 v 8 h -8 z m 8,0 h 8 v 8 h -8 z m 8,0 h 8 v 8 h -8 z m 8,0 h 8 v 8 h -8 z m 8,0 h 8 v 8 h -8 z m 8,0 h 8 v 8 h -8 z m 8,0 h 8 v 8 h -8 z m 16,0 h 8 v 8 h -8 z m 16,0 h 8 v 8 h -8 z M 8,152 h 8 v 8 H 8 Z m 16,0 h 8 v 8 h -8 z m 8,0 h 8 v 8 h -8 z m 16,0 h 8 v 8 h -8 z m 8,0 h 8 v 8 h -8 z m 8,0 h 8 v 8 h -8 z m 8,0 h 8 v 8 h -8 z m 8,0 h 8 v 8 h -8 z m 16,0 h 8 v 8 h -8 z m 8,0 h 8 v 8 h -8 z m 24,0 h 8 v 8 h -8 z m 8,0 h 8 v 8 h -8 z m 8,0 h 8 v 8 h -8 z m 32,0 h 8 v 8 h -8 z m 40,0 h 8 v 8 h -8 z M 8,160 h 8 v 8 H 8 Z m 16,0 h 8 v 8 h -8 z m 24,0 h 8 v 8 h -8 z m 16,0 h 8 v 8 h -8 z m 8,0 h 8 v 8 h -8 z m 24,0 h 8 v 8 h -8 z m 24,0 h 8 v 8 h -8 z m 8,0 h 8 v 8 h -8 z m 32,0 h 8 v 8 h -8 z m 8,0 h 8 v 8 h -8 z m 32,0 h 8 v 8 h -8 z m 24,0 h 8 v 8 h -8 z M 8,168 h 8 v 8 H 8 Z m 24,0 h 8 v 8 h -8 z m 16,0 h 8 v 8 h -8 z m 8,0 h 8 v 8 h -8 z m 8,0 h 8 v 8 h -8 z m 8,0 h 8 v 8 h -8 z m 24,0 h 8 v 8 h -8 z m 48,0 h 8 v 8 h -8 z m 8,0 h 8 v 8 h -8 z m 8,0 h 8 v 8 h -8 z m 8,0 h 8 v 8 h -8 z m 8,0 h 8 v 8 h -8 z m 8,0 h 8 v 8 h -8 z m 8,0 h 8 v 8 h -8 z m 8,0 h 8 v 8 h -8 z m 16,0 h 8 v 8 h -8 z m 8,0 h 8 v 8 h -8 z m 8,0 h 8 v 8 h -8 z m -160,8 h 8 v 8 h -8 z m 8,0 h 8 v 8 h -8 z m 24,0 h 8 v 8 h -8 z m 8,0 h 8 v 8 h -8 z m 8,0 h 8 v 8 h -8 z m 16,0 h 8 v 8 h -8 z m 8,0 h 8 v 8 h -8 z m 8,0 h 8 v 8 h -8 z m 16,0 h 8 v 8 h -8 z m 32,0 h 8 v 8 h -8 z m 8,0 h 8 v 8 h -8 z m 8,0 h 8 v 8 h -8 z m 8,0 h 8 v 8 h -8 z m 8,0 h 8 v 8 h -8 z M 8,184 h 8 v 8 H 8 Z m 8,0 h 8 v 8 h -8 z m 8,0 h 8 v 8 h -8 z m 8,0 h 8 v 8 h -8 z m 8,0 h 8 v 8 h -8 z m 8,0 h 8 v 8 h -8 z m 8,0 h 8 v 8 h -8 z m 16,0 h 8 v 8 h -8 z m 16,0 h 8 v 8 h -8 z m 24,0 h 8 v 8 h -8 z m 8,0 h 8 v 8 h -8 z m 8,0 h 8 v 8 h -8 z m 16,0 h 8 v 8 h -8 z m 16,0 h 8 v 8 h -8 z m 8,0 h 8 v 8 h -8 z m 16,0 h 8 v 8 h -8 z m 16,0 h 8 v 8 h -8 z m 8,0 h 8 v 8 h -8 z m 8,0 h 8 v 8 h -8 z M 8,192 h 8 v 8 H 8 Z m 48,0 h 8 v 8 h -8 z m 48,0 h 8 v 8 h -8 z m 8,0 h 8 v 8 h -8 z m 16,0 h 8 v 8 h -8 z m 8,0 h 8 v 8 h -8 z m 32,0 h 8 v 8 h -8 z m 32,0 h 8 v 8 h -8 z m 32,0 h 8 v 8 h -8 z M 8,200 h 8 v 8 H 8 Z m 16,0 h 8 v 8 h -8 z m 8,0 h 8 v 8 h -8 z m 8,0 h 8 v 8 h -8 z m 16,0 h 8 v 8 h -8 z m 16,0 h 8 v 8 h -8 z m 32,0 h 8 v 8 h -8 z m 16,0 h 8 v 8 h -8 z m 24,0 h 8 v 8 h -8 z m 24,0 h 8 v 8 h -8 z m 8,0 h 8 v 8 h -8 z m 8,0 h 8 v 8 h -8 z m 8,0 h 8 v 8 h -8 z m 8,0 h 8 v 8 h -8 z m 16,0 h 8 v 8 h -8 z m 8,0 h 8 v 8 h -8 z M 8,208 h 8 v 8 H 8 Z m 16,0 h 8 v 8 h -8 z m 8,0 h 8 v 8 h -8 z m 8,0 h 8 v 8 h -8 z m 16,0 h 8 v 8 h -8 z m 16,0 h 8 v 8 h -8 z m 16,0 h 8 v 8 h -8 z m 48,0 h 8 v 8 h -8 z m 16,0 h 8 v 8 h -8 z m 40,0 h 8 v 8 h -8 z m 16,0 h 8 v 8 h -8 z m 8,0 h 8 v 8 h -8 z m 8,0 h 8 v 8 h -8 z m 8,0 h 8 v 8 h -8 z M 8,216 h 8 v 8 H 8 Z m 16,0 h 8 v 8 h -8 z m 8,0 h 8 v 8 h -8 z m 8,0 h 8 v 8 h -8 z m 16,0 h 8 v 8 h -8 z m 16,0 h 8 v 8 h -8 z m 16,0 h 8 v 8 h -8 z m 8,0 h 8 v 8 h -8 z m 8,0 h 8 v 8 h -8 z m 24,0 h 8 v 8 h -8 z m 8,0 h 8 v 8 h -8 z m 16,0 h 8 v 8 h -8 z m 16,0 h 8 v 8 h -8 z m 8,0 h 8 v 8 h -8 z m 8,0 h 8 v 8 h -8 z m 8,0 h 8 v 8 h -8 z m 8,0 h 8 v 8 h -8 z m 8,0 h 8 v 8 h -8 z m 8,0 h 8 v 8 h -8 z m 8,0 h 8 v 8 h -8 z M 8,224 h 8 v 8 H 8 Z m 48,0 h 8 v 8 h -8 z m 16,0 h 8 v 8 h -8 z m 8,0 h 8 v 8 h -8 z m 16,0 h 8 v 8 h -8 z m 24,0 h 8 v 8 h -8 z m 8,0 h 8 v 8 h -8 z m 8,0 h 8 v 8 h -8 z m 24,0 h 8 v 8 h -8 z m 8,0 h 8 v 8 h -8 z m 16,0 h 8 v 8 h -8 z m 16,0 h 8 v 8 h -8 z m 8,0 h 8 v 8 h -8 z m 16,0 h 8 v 8 h -8 z M 8,232 h 8 v 8 H 8 Z m 8,0 h 8 v 8 h -8 z m 8,0 h 8 v 8 h -8 z m 8,0 h 8 v 8 h -8 z m 8,0 h 8 v 8 h -8 z m 8,0 h 8 v 8 h -8 z m 8,0 h 8 v 8 h -8 z m 16,0 h 8 v 8 h -8 z m 16,0 h 8 v 8 h -8 z m 8,0 h 8 v 8 h -8 z m 32,0 h 8 v 8 h -8 z m 8,0 h 8 v 8 h -8 z m 8,0 h 8 v 8 h -8 z m 16,0 h 8 v 8 h -8 z m 16,0 h 8 v 8 h -8 z m 8,0 h 8 v 8 h -8 z m 8,0 h 8 v 8 h -8 z m 8,0 h 8 v 8 h -8 z m 8,0 h 8 v 8 h -8 z m 8,0 h 8 v 8 h -8 z"
       id="path8" />
  </g>
</svg>
