<?xml version="1.0" encoding="UTF-8" standalone="no"?>
<svg
   xmlns:dc="http://purl.org/dc/elements/1.1/"
   xmlns:cc="http://creativecommons.org/ns#"
   xmlns:rdf="http://www.w3.org/1999/02/22-rdf-syntax-ns#"
   xmlns:svg="http://www.w3.org/2000/svg"
   xmlns="http://www.w3.org/2000/svg"
   xmlns:sodipodi="http://sodipodi.sourceforge.net/DTD/sodipodi-0.dtd"
   xmlns:inkscape="http://www.inkscape.org/namespaces/inkscape"
   version="1.1"
   width="269.16196"
   height="269.16196"
   id="svg11"
   sodipodi:docname="qrcode2.svg"
   inkscape:version="1.0 (1.0+r73+1)">
  <metadata
     id="metadata17">
    <rdf:RDF>
      <cc:Work
         rdf:about="">
        <dc:format>image/svg+xml</dc:format>
        <dc:type
           rdf:resource="http://purl.org/dc/dcmitype/StillImage" />
        <dc:title>QR Code</dc:title>
      </cc:Work>
    </rdf:RDF>
  </metadata>
  <defs
     id="defs15" />
  <sodipodi:namedview
     inkscape:document-rotation="0"
     pagecolor="#ffffff"
     bordercolor="#666666"
     borderopacity="1"
     objecttolerance="10"
     gridtolerance="10"
     guidetolerance="10"
     inkscape:pageopacity="0"
     inkscape:pageshadow="2"
     inkscape:window-width="1853"
     inkscape:window-height="1025"
     id="namedview13"
     showgrid="false"
     inkscape:zoom="2.8629032"
     inkscape:cx="134.58098"
     inkscape:cy="134.58098"
     inkscape:window-x="67"
     inkscape:window-y="27"
     inkscape:window-maximized="1"
     inkscape:current-layer="svg11" />
  <!-- Created with https://api.qrserver.com (QR Code API, see goQR.me/api for information) -->
  <title
     id="title2">QR Code</title>
  <rect
     ry="22.086489"
     id="rect844"
     height="269.16196"
     width="269.16196"
     y="0"
     x="0"
     style="fill:#000000;fill-opacity:1;stroke-width:1.08532" />
  <desc
     id="desc4">https://trucomanx.github.io/aulicha</desc>
  <rect
     style="fill:#ffffff;fill-opacity:1;stroke-width:1.03225"
     x="6.5809784"
     y="6.5809784"
     width="256"
     height="256"
     id="rect6"
     ry="16.340136" />
  <path
     id="path8"
     style="fill:#000000;stroke:none;stroke-opacity:1"
     d="m 18.580978,18.580978 c 0,18.666667 0,37.333333 0,56 18.666667,0 37.333333,0 56,0 0,-18.666667 0,-37.333333 0,-56 -18.666667,0 -37.333333,0 -56,0 z m 72,0 c -0.429025,3.550032 1.95132,9.909434 -3.937171,8 -5.90978,-1.930723 -3.712833,4.245281 -4.062829,7.874341 2.820737,0.981475 9.737655,-2.133231 8,3.406635 1.881916,5.860972 -3.09379,4.864323 -7.218146,4.719024 -0.945304,1.04279 -2.581812,9.663016 1.842926,8 4.458407,0 8.916813,0 13.37522,0 0.429025,-3.550032 -1.95132,-9.909434 3.937172,-8 5.90978,-1.930723 3.71283,4.245281 4.06283,7.874341 2.82074,-0.397886 9.73765,2.223085 8,-3.155317 0,-4.239674 0,-8.479349 0,-12.719024 3.55003,-0.429025 9.90943,1.95132 8,-3.937171 1.93072,-5.90978 -4.24528,-3.712833 -7.87434,-4.062829 -3.11253,0.68968 -9.78258,-2.178158 -8.12566,3.280976 1.88191,5.860972 -3.09379,4.864323 -7.218148,4.719024 -1.852363,-1.949849 -0.26161,-7.342814 -0.781854,-10.62478 1.600452,-5.579509 -1.885058,-6.073056 -6.561951,-5.37522 -0.47935,0 -0.958699,0 -1.438049,0 z m 24.000002,32 c 0.42903,3.550032 -1.95132,9.909434 3.93717,8 5.90978,-1.930723 3.71283,4.245281 4.06283,7.874341 2.82074,0.981475 9.73765,-2.133231 8,3.406635 -1.88192,5.860972 3.09379,4.864323 7.21815,4.719024 2.75942,-1.04279 -2.0586,-9.663016 3.40663,-8 5.57951,-1.600452 6.07306,1.885058 5.37522,6.561951 -0.35445,2.286745 9.13857,2.764217 8,-0.530536 -1.1464,-5.125456 0.69438,-7.263734 5.90576,-6.031415 4.29482,-0.492609 1.15476,6.449663 2.09424,9.31239 0.60123,4.580284 0.39137,8.349484 -5.24956,6.68761 -5.51564,-1.713426 -0.95283,6.651589 -3.40664,8 -4.03065,-0.05159 -9.25045,-1.292337 -7.3438,4.593366 -1.7176,5.519816 4.82593,2.778494 8,3.406634 0.42903,3.550032 -1.95132,9.909432 3.93717,8.000002 5.90978,1.93072 3.71283,-4.24528 4.06283,-7.874343 5.0832,-0.292016 10.70981,-0.04063 16,-0.125659 0.42903,3.550032 -1.95132,9.909432 3.93717,8.000002 5.90978,1.93072 3.71283,-4.24528 4.06283,-7.874343 2.82074,0.397886 9.73765,-2.223085 8,3.155313 0,4.23968 0,8.47935 0,12.71903 3.55003,-0.42903 9.90943,1.95132 8,-3.93717 -1.93072,-5.90978 4.24528,-3.71284 7.87434,-4.06283 0.98148,-2.82074 -2.13323,-9.737657 3.40664,-8.000002 5.86097,1.881912 4.86432,-3.09379 4.71902,-7.218146 -1.04279,-2.759422 -9.66302,2.058593 -8,-3.406634 1.60045,-5.579509 -1.88506,-6.073056 -6.56195,-5.37522 -4.15666,-0.354445 1.53414,9.138566 -3.40664,8 -5.12545,1.146398 -7.26373,-0.69438 -6.03141,-5.905756 1.27676,-5.078967 -8.12736,0.522941 -8,-3.406634 0,-4.89587 0,-9.79174 0,-14.68761 -3.55003,0.429025 -9.90943,-1.95132 -8,3.937171 0,6.687609 0,13.375219 0,20.062829 -3.55003,-0.429025 -9.90943,1.95132 -8,-3.937171 0,-9.354276 0,-18.708553 0,-28.062829 5.33333,0 10.66667,0 16,0 -0.42903,-3.550032 1.95132,-9.909434 -3.93717,-8 -5.90978,1.930723 -3.71283,-4.245281 -4.06283,-7.874341 -2.82074,0.397886 -9.73765,-2.223085 -8,3.155317 1.88192,5.860972 -3.09379,4.864323 -7.21815,4.719024 -2.75942,1.04279 2.0586,9.663016 -3.40663,8 -4.45841,0 -8.91681,0 -13.37522,0 -0.42903,-3.550032 1.95132,-9.909434 -3.93717,-8 -9.35428,0 -18.70855,0 -28.06283,0 z m 48,0 c -0.42903,-3.550032 1.95132,-9.909434 -3.93717,-8 -5.90978,-1.930723 -3.71283,4.245281 -4.06283,7.874341 2.40359,0.285429 5.39156,0.04739 8,0.125659 z m -8,-8 c -0.42903,-3.550032 1.95132,-9.909434 -3.93717,-8 -5.90978,-1.930723 -3.71283,4.245281 -4.06283,7.874341 2.40359,0.285429 5.39156,0.04739 8,0.125659 z m 64,48 c 3.55003,-0.429025 9.90943,1.95132 8,-3.937171 1.93072,-5.90978 -4.24528,-3.712833 -7.87434,-4.062829 -0.28543,2.40359 -0.0474,5.391556 -0.12566,8 z m -8,16.000002 c 0.42903,3.55003 -1.95132,9.90943 3.93717,8 5.90978,-1.93072 3.71283,4.24528 4.06283,7.87434 5.0832,0.29202 10.70981,0.0406 16,0.12566 -0.42903,-3.55003 1.95132,-9.90943 -3.93717,-8 -5.90978,1.93072 -3.71283,-4.24528 -4.06283,-7.87434 -5.07203,-0.28909 -10.72783,-0.0428 -16,-0.12566 z m 24,8 c 3.55003,-0.42903 9.90943,1.95132 8,-3.93717 1.93072,-5.90978 -4.24528,-3.71284 -7.87434,-4.06283 -0.28543,2.40359 -0.0474,5.39156 -0.12566,8 z m -16,8 c -13.33333,0 -26.66667,0 -40,0 -0.42903,-3.55003 1.95132,-9.90943 -3.93717,-8 -5.90978,-1.93072 -3.71283,4.24528 -4.06283,7.87434 -2.82074,-0.39788 -9.73765,2.22309 -8,-3.15532 1.88192,-5.86097 -3.09379,-4.86432 -7.21815,-4.71902 -2.75942,1.04279 2.0586,9.66302 -3.40663,8 -5.57951,-1.60045 -6.07306,1.88506 -5.37522,6.56195 0.35445,2.28675 -9.13857,2.76422 -8,-0.53054 1.1464,-5.12545 -0.69438,-7.26373 -5.90576,-6.03141 -6.03141,0 -12.06283,0 -18.09424,0 0.42903,3.55003 -1.95132,9.90943 3.93717,8 5.90978,-1.93072 3.71283,4.24528 4.06283,7.87434 -2.82074,0.98148 -9.73765,-2.13323 -8,3.40664 0,4.23967 0,8.47935 0,12.71902 3.55003,-0.42903 9.90943,1.95132 8,-3.93717 -1.93072,-5.90978 4.24528,-3.71283 7.87434,-4.06283 0.98148,-2.82074 -2.13323,-9.73765 3.40664,-8 6.90634,0 13.81268,0 20.71902,0 0.42903,-3.55003 -1.95132,-9.90943 3.93717,-8 5.90978,-1.93072 3.71283,4.24528 4.06283,7.87434 2.82074,-0.39788 9.73765,2.22309 8,-3.15532 -1.88192,-5.86097 3.09379,-4.86432 7.21815,-4.71902 0.9453,1.04279 2.58181,9.66302 -1.84293,8 -5.57951,-1.60045 -6.07306,1.88506 -5.37522,6.56195 0.58051,3.2217 6.98939,0.61504 9.96859,1.43805 5.12545,1.1464 7.26373,-0.69438 6.03141,-5.90576 0.78415,-3.01806 -1.6777,-9.28212 1.31239,-10.09424 4.58028,-0.60123 8.34948,-0.39137 6.68761,5.24956 -1.71343,5.51564 6.65159,0.95283 8,3.40664 0,5.1146 0,10.2292 0,15.3438 -13.33333,0 -26.66667,0 -40,0 -0.42903,-3.55003 1.95132,-9.90943 -3.93717,-8 -5.90978,-1.93072 -3.71283,4.24528 -4.06283,7.87434 -2.82074,0.98148 -9.73765,-2.13323 -8,3.40664 1.88192,5.86097 -3.09379,4.86432 -7.21815,4.71902 -2.75942,1.04279 2.0586,9.66302 -3.40663,8 -5.57951,-1.60045 -6.07306,1.88506 -5.37522,6.56195 0.58051,3.2217 6.98939,0.61504 9.96859,1.43805 5.12545,1.1464 7.26373,-0.69438 6.03141,-5.90576 -0.49261,-4.29482 6.44966,-1.15476 9.31239,-2.09424 4.58028,0.60123 8.34948,0.39137 6.68761,-5.24956 -1.26156,-5.06378 5.73093,-1.87349 8.6562,-2.75044 5.1146,0 10.2292,0 15.3438,0 0.42903,3.55003 -1.95132,9.90943 3.93717,8 5.90978,1.93072 3.71283,-4.24528 4.06283,-7.87434 7.75185,-0.29003 16.04002,-0.0438 24,-0.12566 -0.42903,-3.55003 1.95132,-9.90943 -3.93717,-8 -5.90978,1.93072 -3.71283,-4.24528 -4.06283,-7.87434 2.82074,-0.98148 9.73765,2.13323 8,-3.40664 -1.88192,-5.86097 3.09379,-4.86432 7.21815,-4.71902 2.89515,-0.90706 9.92462,2.3202 8.78185,-2.62478 1.60045,-5.57951 -1.88506,-6.07306 -6.56195,-5.37522 -2.86726,-0.93496 -9.7536,2.14918 -9.43805,-1.96859 0,-2.01047 0,-4.02094 0,-6.03141 z m 16,16 c 0.42903,3.55003 -1.95132,9.90943 3.93717,8 5.90978,1.93072 3.71283,-4.24528 4.06283,-7.87434 -2.40359,-0.28543 -5.39156,-0.0474 -8,-0.12566 z m 0,8 c -5.33333,0 -10.66667,0 -16,0 0.42903,3.55003 -1.95132,9.90943 3.93717,8 5.90978,-1.93072 3.71283,4.24528 4.06283,7.87434 0.68968,3.11253 -2.17816,9.78258 3.28098,8.12566 5.86097,1.88192 4.86432,-3.09379 4.71902,-7.21815 0,-5.59395 0,-11.1879 0,-16.78185 z m 0,24 c -0.42903,3.55003 1.95132,9.90943 -3.93717,8 -5.90978,-1.93072 -3.71283,4.24528 -4.06283,7.87434 -2.82074,-0.39788 -9.73765,2.22309 -8,-3.15532 0,-4.23967 0,-8.47935 0,-12.71902 -3.55003,0.42903 -9.90943,-1.95132 -8,3.93717 1.93072,5.90978 -4.24528,3.71283 -7.87434,4.06283 -5.37522,0 -10.75044,0 -16.12566,0 -0.42903,-3.55003 1.95132,-9.90943 -3.93717,-8 -4.02094,0 -8.04189,0 -12.06283,0 -0.42903,3.55003 1.95132,9.90943 -3.93717,8 -4.02094,0 -8.04189,0 -12.06283,0 -0.42903,3.55003 1.95132,9.90943 -3.93717,8 -5.90978,-1.93072 -3.71283,4.24528 -4.06283,7.87434 2.82074,0.98148 9.73765,-2.13323 8,3.40664 -1.88192,5.86097 3.09379,4.86432 7.21815,4.71902 2.75942,-1.04279 -2.0586,-9.66302 3.40663,-8 5.57951,1.60045 6.07306,-1.88506 5.37522,-6.56195 -0.35445,-2.28675 9.13857,-2.76422 8,0.53054 1.1464,5.12545 -0.69438,7.26373 -5.90576,6.03141 -3.51067,-1.27676 -2.83246,8.12736 -0.78185,8 4.58028,-0.60123 8.34948,-0.39137 6.68761,5.24956 0.45186,3.35035 -0.92066,8.52508 0.6562,10.75044 7.78126,0 15.56253,0 23.3438,0 -0.42903,3.55003 1.95132,9.90943 -3.93717,8 -6.68761,0 -13.37522,0 -20.06283,0 -0.42903,3.55003 1.95132,9.90943 -3.93717,8 -5.90978,-1.93072 -3.71283,4.24528 -4.06283,7.87434 0.68968,3.11253 -2.17816,9.78258 3.28098,8.12566 5.86097,1.88192 4.86432,-3.09379 4.71902,-7.21815 1.04279,-2.75942 9.66302,2.0586 8,-3.40663 -1.60045,-5.57951 1.88506,-6.07306 6.56195,-5.37522 2.28675,-0.35445 2.76422,9.13857 -0.53054,8 -5.12545,-1.1464 -7.26373,0.69438 -6.03141,5.90576 -0.49261,4.29482 6.44966,1.15476 9.31239,2.09424 12.89587,0 25.79174,0 38.68761,0 -0.42903,-3.55003 1.95132,-9.90943 -3.93717,-8 -5.90978,1.93072 -3.71283,-4.24528 -4.06283,-7.87434 2.82074,0.39788 9.73765,-2.22309 8,3.15532 -1.88192,5.86097 3.09379,4.86432 7.21815,4.71902 1.85236,-1.94985 0.26161,-7.34281 0.78185,-10.62478 -1.60045,-5.57951 1.88506,-6.07306 6.56195,-5.37522 2.28675,0.35445 2.76422,-9.13857 -0.53054,-8 -5.12545,1.1464 -7.26373,-0.69438 -6.03141,-5.90576 0.49261,-4.29482 -6.44966,-1.15476 -9.31239,-2.09424 -4.58028,-0.60123 -8.34948,-0.39137 -6.68761,5.24956 1.71343,5.51564 -6.65159,0.95283 -8,3.40664 0.0516,4.03065 1.29234,9.25045 -4.59337,7.3438 -5.51981,1.7176 -2.77849,-4.82593 -3.40663,-8 3.55003,-0.42903 9.90943,1.95132 8,-3.93717 0,-4.02094 0,-8.04189 0,-12.06283 5.33333,0 10.66667,0 16,0 0.42903,-3.55003 -1.95132,-9.90943 3.93717,-8 4.02094,0 8.04189,0 12.06283,0 0,-5.33333 0,-10.66667 0,-16 -3.55003,-0.42903 -9.90943,1.95132 -8,-3.93717 1.93072,-5.90978 -4.24528,-3.71283 -7.87434,-4.06283 z m 8,40 c 3.55003,-0.42903 9.90943,1.95132 8,-3.93717 1.93072,-5.90978 -4.24528,-3.71283 -7.87434,-4.06283 -0.28543,2.40359 -0.0474,5.39156 -0.12566,8 z m -72,24 c 0,-5.33333 0,-10.66667 0,-16 -3.55003,0.42903 -9.90943,-1.95132 -8,3.93717 0,4.02094 0,8.04189 0,12.06283 2.66667,0 5.33333,0 8,0 z m -8,-16 c -0.42903,-3.55003 1.95132,-9.90943 -3.93717,-8 -5.90978,-1.93072 -3.71283,4.24528 -4.06283,7.87434 2.40359,0.28543 5.39156,0.0474 8,0.12566 z m -8,0 c -3.55003,0.42903 -9.90943,-1.95132 -8,3.93717 1.93072,5.90978 -4.24528,3.71283 -7.87434,4.06283 -0.98148,2.82074 2.13323,9.73765 -3.40664,8 -5.86097,-1.88192 -4.86432,3.09379 -4.71902,7.21815 1.04279,2.75942 9.66302,-2.0586 8,3.40663 -1.60045,5.57951 1.88506,6.07306 6.56195,5.37522 5.81268,0 11.62537,0 17.43805,0 -0.42903,-3.55003 1.95132,-9.90943 -3.93717,-8 -5.90978,1.93072 -3.71283,-4.24528 -4.06283,-7.87434 0,-5.37522 0,-10.75044 0,-16.12566 z m 0,-8 c -0.42903,-3.55003 1.95132,-9.90943 -3.93717,-8 -5.90978,1.93072 -3.71283,-4.24528 -4.06283,-7.87434 -2.82074,-0.98148 -9.73765,2.13323 -8,-3.40664 1.88192,-5.86097 -3.09379,-4.86432 -7.21815,-4.71902 -5.59395,0 -11.1879,0 -16.78185,0 0.42903,3.55003 -1.95132,9.90943 3.93717,8 5.90978,-1.93072 3.71283,4.24528 4.06283,7.87434 -2.82074,0.98148 -9.73765,-2.13323 -8,3.40664 0,4.23967 0,8.47935 0,12.71902 3.55003,-0.42903 9.90943,1.95132 8,-3.93717 -1.93072,-5.90978 4.24528,-3.71283 7.87434,-4.06283 0.98148,-2.82074 -2.13323,-9.73765 3.40664,-8 5.86097,-1.88192 4.86432,3.09379 4.71902,7.21815 1.94985,1.85236 7.34281,0.26161 10.62478,0.78185 1.79174,0 3.58348,0 5.37522,0 z m -16,0 c -3.55003,0.42903 -9.90943,-1.95132 -8,3.93717 -1.93072,5.90978 4.24528,3.71283 7.87434,4.06283 0.28543,-2.40359 0.0474,-5.39156 0.12566,-8 z m -24,-24 c 0,-5.33333 0,-10.66667 0,-16 3.55003,-0.42903 9.90943,1.95132 8,-3.93717 1.93072,-5.90978 -4.24528,-3.71283 -7.87434,-4.06283 -3.11253,0.68968 -9.78258,-2.17816 -8.12566,3.28098 0,6.90634 0,13.81268 0,20.71902 2.66667,0 5.33333,0 8,0 z m -8,-24 c 0,-5.33333 0,-10.66667 0,-16 -3.55003,-0.42903 -9.909436,1.95132 -8.000002,-3.93717 -1.930723,-5.90978 4.245282,-3.71283 7.874342,-4.06283 0.29202,-5.0832 0.0406,-10.70981 0.12566,-16 -3.55003,-0.42903 -9.909436,1.95132 -8.000002,-3.93717 -1.930723,-5.90978 4.245282,-3.71283 7.874342,-4.06283 0.98147,2.82074 -2.13323,9.73765 3.40663,8 5.86098,1.88192 4.86433,-3.09379 4.71903,-7.21815 0.90706,-2.89515 -2.3202,-9.92462 2.62478,-8.78185 5.57951,1.60045 6.07306,-1.88506 5.37522,-6.56195 -0.58051,-3.221704 -6.98939,-0.61504 -9.96859,-1.438052 -5.12545,-1.146398 -7.26373,0.69438 -6.03141,5.905752 1.27675,3.51068 -8.127366,2.83247 -8.000002,0.78186 0,-4.89587 0,-9.791742 0,-14.687612 3.550032,-0.429025 9.909432,1.95132 8.000002,-3.937171 1.93072,-5.90978 -4.24528,-3.712833 -7.874343,-4.062829 -10.708553,0 -21.417106,0 -32.125659,0 0.429025,3.550032 -1.95132,9.909434 3.937171,8 5.90978,-1.930723 3.712833,4.245281 4.062829,7.874341 -2.820737,0.981475 -9.737655,-2.133231 -8,3.406631 -1.881916,5.86098 3.09379,4.86433 7.218146,4.71903 2.759422,1.04279 -2.058593,9.66302 3.406634,8 5.579509,1.60045 6.073056,-1.88506 5.37522,-6.56195 -0.354445,-2.28675 9.138566,-2.76422 8,0.53053 0,7.34381 0,14.68762 0,22.03142 -3.550032,-0.42903 -9.909434,1.95132 -8,-3.93717 1.930723,-5.90978 -4.245281,-3.71283 -7.874341,-4.06283 -0.981475,2.82074 2.133231,9.73765 -3.406635,8 -5.860972,-1.88192 -4.864323,3.09379 -4.719024,7.21815 1.949849,1.85236 7.342814,0.26161 10.62478,0.78185 4.458407,0 8.916813,0 13.37522,0 0,5.33333 0,10.66667 0,16 -3.550032,0.42903 -9.909434,-1.95132 -8,3.93717 1.930723,5.90978 -4.245281,3.71283 -7.874341,4.06283 -3.112531,-0.68968 -9.782582,2.17816 -8.125659,-3.28098 1.881916,-5.86097 -3.09379,-4.86432 -7.218146,-4.71902 -1.852363,1.94985 -0.26161,7.34281 -0.781854,10.62478 0,7.12507 0,14.25015 0,21.37522 8,0 16,0 24,0 0,5.33333 0,10.66667 0,16 3.550032,-0.42903 9.909434,1.95132 8,-3.93717 -1.930723,-5.90978 4.245281,-3.71283 7.874341,-4.06283 -0.397886,-2.82074 2.223081,-9.73765 -3.155317,-8 -5.860972,1.88192 -4.864323,-3.09379 -4.719024,-7.21815 0.907059,-2.89515 -2.320203,-9.92462 2.62478,-8.78185 5.579509,1.60045 6.073056,-1.88506 5.37522,-6.56195 -0.919184,-3.02729 6.392102,-0.702 8.000002,-1.43805 z m -8.000002,32 c 0.429025,3.55003 -1.95132,9.90943 3.937172,8 5.90978,1.93072 3.71283,-4.24528 4.06283,-7.87434 -2.40359,-0.28543 -5.39156,-0.0474 -8.000002,-0.12566 z m -40,-40 c -0.429025,-3.55003 1.95132,-9.90943 -3.937171,-8 -5.90978,-1.93072 -3.712833,4.24528 -4.062829,7.87434 2.40359,0.28543 5.391556,0.0474 8,0.12566 z m -8,-8 c 0.429025,-3.55003 -1.95132,-9.90943 3.937171,-8 5.90978,1.93072 3.712833,-4.24528 4.062829,-7.87434 -2.820737,-0.98148 -9.737655,2.13323 -8,-3.40664 0,-4.23967 0,-8.47935 0,-12.71902 3.550032,-0.42903 9.909434,1.95132 8,-3.93717 1.930723,-5.90978 -4.245281,-3.71284 -7.874341,-4.06283 -0.981475,-2.82074 2.133231,-9.737657 -3.406635,-8.000002 -5.860972,-1.881916 -4.864323,3.093792 -4.719024,7.218142 0,5.59396 0,11.18791 0,16.78186 -3.550032,0.42903 -9.909434,-1.95132 -8,3.93717 0,4.02094 0,8.04189 0,12.06283 3.550032,0.42903 9.909434,-1.95132 8,3.93717 -1.930723,5.90978 4.245281,3.71283 7.874341,4.06283 z m -8,0 c -5.333333,0 -10.666667,0 -16,0 -0.429025,3.55003 1.95132,9.90943 -3.937171,8 -5.909779,-1.93072 -3.712832,4.24528 -4.062829,7.87434 0,8.04189 0,16.08377 0,24.12566 3.550032,-0.42903 9.909434,1.95132 8,-3.93717 0,-6.68761 0,-13.37522 0,-20.06283 3.550032,-0.42903 9.909434,1.95132 8,-3.93717 -1.930723,-5.90978 4.245281,-3.71283 7.874341,-4.06283 0.285429,-2.40359 0.04739,-5.39156 0.125659,-8 z m -8,16 c 0,5.33333 0,10.66667 0,16 3.550032,-0.42903 9.909434,1.95132 8,-3.93717 -1.930723,-5.90978 4.245281,-3.71283 7.874341,-4.06283 -0.397886,-2.82074 2.223085,-9.73765 -3.155317,-8 -4.239674,0 -8.479349,0 -12.719024,0 z m 8,16 c 0.429025,3.55003 -1.95132,9.90943 3.937171,8 5.90978,1.93072 3.712833,-4.24528 4.062829,-7.87434 -2.40359,-0.28543 -5.391556,-0.0474 -8,-0.12566 z m -16,-32 c -0.429025,-3.55003 1.95132,-9.90943 -3.937171,-8 -5.909779,-1.93072 -3.712832,4.24528 -4.062829,7.87434 2.40359,0.28543 5.391556,0.0474 8,0.12566 z m 8,-24 c 0,-5.33333 0,-10.66667 0,-16 -3.550032,0.42902 -9.909434,-1.95132 -8,3.93717 0,4.02094 0,8.04189 0,12.06283 2.666667,0 5.333333,0 8,0 z m -8,-16 c -0.429025,-3.55003 1.95132,-9.909436 -3.937171,-8.000002 -5.909779,-1.930723 -3.712832,4.245282 -4.062829,7.874342 2.40359,0.28543 5.391556,0.0474 8,0.12566 z m 0,-8.000002 c 5.333333,0 10.666667,0 16,0 0.429025,-3.550032 -1.95132,-9.909434 3.937171,-8 4.020943,0 8.041886,0 12.062829,0 -0.429025,-3.550032 1.95132,-9.909434 -3.937171,-8 -12.020943,0 -24.041886,0 -36.062829,0 0.429026,3.550032 -1.95132,9.909434 3.937171,8 5.90978,-1.930723 3.712833,4.245281 4.062829,7.874341 z m 32,-8 c 0.429025,3.550032 -1.95132,9.909432 3.937171,8 5.90978,1.930722 3.712833,-4.245281 4.062829,-7.874341 -2.40359,-0.285429 -5.391556,-0.04739 -8,-0.125659 z m 0,24.000002 c 0,5.33333 0,10.66667 0,16 3.550032,-0.42903 9.909434,1.95132 8,-3.93717 -1.930723,-5.90978 4.245281,-3.71283 7.874341,-4.06283 -0.397886,-2.82074 2.223085,-9.73765 -3.155317,-8 -4.239674,0 -8.479349,0 -12.719024,0 z m 8,40 c 3.550032,-0.42903 9.909434,1.95132 8,-3.93717 1.930723,-5.90978 -4.245281,-3.71283 -7.874341,-4.06283 -0.285429,2.40359 -0.04739,5.39156 -0.125659,8 z m 80.000002,0 c -0.42903,-3.55003 1.95132,-9.90943 -3.93717,-8 -4.02094,0 -8.04189,0 -12.06283,0 0.42903,3.55003 -1.95132,9.90943 3.93717,8 4.02094,0 8.04189,0 12.06283,0 z m 16,-40 c 3.55003,-0.42903 9.90943,1.95132 8,-3.93717 1.93072,-5.90978 -4.24528,-3.71284 -7.87434,-4.06283 -0.28543,2.40359 -0.0474,5.39156 -0.12566,8 z m -16,-16.000002 c -3.55003,0.429025 -9.90943,-1.95132 -8,3.937172 1.93072,5.90978 -4.24528,3.71283 -7.87434,4.06283 0.39788,2.82074 -2.22309,9.73765 3.15532,8 4.23967,0 8.47935,0 12.71902,0 0,-5.33333 0,-10.66667 0,-16.000002 z m 0,-8 c 0,-5.333333 0,-10.666667 0,-16 -3.55003,0.429025 -9.90943,-1.95132 -8,3.937171 1.93072,5.90978 -4.24528,3.712833 -7.87434,4.062829 0.39788,2.820737 -2.22309,9.737655 3.15532,8 4.23967,0 8.47935,0 12.71902,0 z m -16,-8 c -0.42903,-3.550032 1.95132,-9.909434 -3.93717,-8 -5.90978,1.930723 -3.71283,-4.245281 -4.06283,-7.874341 -2.82074,0.397886 -9.73765,-2.223085 -8,3.155317 0,6.906341 0,13.812683 0,20.719024 3.55003,-0.429025 9.90943,1.95132 8,-3.937171 -1.93072,-5.90978 4.24528,-3.712833 7.87434,-4.062829 z m -24,-32 c -3.55003,0.429025 -9.909436,-1.95132 -8.000002,3.937171 0,6.687609 0,13.375219 0,20.062829 3.550032,-0.429025 9.909432,1.95132 8.000002,-3.937171 0,-6.687609 0,-13.375219 0,-20.062829 z m 32,-32 c 0.42903,3.550032 -1.95132,9.909434 3.93717,8 4.02094,0 8.04189,0 12.06283,0 -0.42903,-3.550032 1.95132,-9.909434 -3.93717,-8 -4.02094,0 -8.04189,0 -12.06283,0 z m 32,0 c 0.42903,3.550032 -1.95132,9.909434 3.93717,8 4.02094,0 8.04189,0 12.06283,0 -0.42903,-3.550032 1.95132,-9.909434 -3.93717,-8 -4.02094,0 -8.04189,0 -12.06283,0 z m 24,0 c 0,18.666667 0,37.333333 0,56 18.66667,0 37.33333,0 56,0 0,-18.666667 0,-37.333333 0,-56 -18.66667,0 -37.33333,0 -56,0 z m -168.000002,8 c 13.333333,0 26.666667,0 40,0 0,13.333333 0,26.666667 0,40 -13.333333,0 -26.666667,0 -40,0 0,-13.333333 0,-26.666667 0,-40 z m 176.000002,0 c 13.33333,0 26.66667,0 40,0 0,13.333333 0,26.666667 0,40 -13.33333,0 -26.66667,0 -40,0 0,-13.333333 0,-26.666667 0,-40 z m -168.000002,8 c 0,8 0,16 0,24 8,0 16,0 24,0 0,-8 0,-16 0,-24 -8,0 -16,0 -24,0 z m 96.000002,0 c 0.42903,3.550032 -1.95132,9.909434 3.93717,8 5.90978,1.930723 3.71283,-4.245281 4.06283,-7.874341 -2.40359,-0.285429 -5.39156,-0.04739 -8,-0.125659 z m 80,0 c 0,8 0,16 0,24 8,0 16,0 24,0 0,-8 0,-16 0,-24 -8,0 -16,0 -24,0 z m -128.000002,24 c 0,5.333333 0,10.666667 0,16 3.550032,-0.429025 9.909434,1.95132 8,-3.937171 0,-4.020943 0,-8.041886 0,-12.062829 -2.666667,0 -5.333333,0 -8,0 z m 152.000002,24 c 0.42903,3.550032 -1.95132,9.909434 3.93717,8 5.90978,1.930723 3.71283,-4.245281 4.06283,-7.874341 -2.40359,-0.285429 -5.39156,-0.04739 -8,-0.125659 z m 8,8 c 0.42903,3.550032 -1.95132,9.909432 3.93717,8 5.90978,1.930722 3.71283,-4.245281 4.06283,-7.874341 -2.40359,-0.285429 -5.39156,-0.04739 -8,-0.125659 z m 0,32.000002 c 0.42903,3.55003 -1.95132,9.90943 3.93717,8 5.90978,1.93072 3.71283,-4.24528 4.06283,-7.87434 -2.40359,-0.28543 -5.39156,-0.0474 -8,-0.12566 z m 0,32 c 0.42903,3.55003 -1.95132,9.90943 3.93717,8 5.90978,1.93072 3.71283,-4.24528 4.06283,-7.87434 -2.40359,-0.28543 -5.39156,-0.0474 -8,-0.12566 z m -176.000002,16 c 3.550032,0.42903 9.909434,-1.95132 8,3.93717 1.930723,5.90978 -4.245281,3.71283 -7.874341,4.06283 -0.285429,-2.40359 -0.04739,-5.39156 -0.125659,-8 z m 120.000002,16 c 8,0 16,0 24,0 0,8 0,16 0,24 -8,0 -16,0 -24,0 0,-8 0,-16 0,-24 z m -168.000002,8 c 0,18.66667 0,37.33333 0,56 18.666667,0 37.333333,0 56,0 0,-18.66667 0,-37.33333 0,-56 -18.666667,0 -37.333333,0 -56,0 z m 176.000002,0 c 0.42903,3.55003 -1.95132,9.90943 3.93717,8 5.90978,1.93072 3.71283,-4.24528 4.06283,-7.87434 -2.40359,-0.28543 -5.39156,-0.0474 -8,-0.12566 z m -168.000002,8 c 13.333333,0 26.666667,0 40,0 0,13.33333 0,26.66667 0,40 -13.333333,0 -26.666667,0 -40,0 0,-13.33333 0,-26.66667 0,-40 z m 8,8 c 0,8 0,16 0,24 8,0 16,0 24,0 0,-8 0,-16 0,-24 -8,0 -16,0 -24,0 z m 48,0 c 0,13.33333 0,26.66667 0,40 3.550032,-0.42903 9.909434,1.95132 8,-3.93717 -1.930723,-5.90978 4.245281,-3.71283 7.874341,-4.06283 -0.397886,-2.82074 2.223081,-9.73765 -3.155317,-8 -5.860972,1.88192 -4.864323,-3.09379 -4.719024,-7.21815 0,-5.59395 0,-11.1879 0,-16.78185 -2.666667,0 -5.333333,0 -8,0 z m 16,24 c 3.550032,0.42903 9.909432,-1.95132 8.000002,3.93717 1.93072,5.90978 -4.24528,3.71283 -7.874343,4.06283 0.397886,2.82074 -2.223085,9.73765 3.155313,8 4.23968,0 8.47935,0 12.71903,0 0,-5.33333 0,-10.66667 0,-16 3.55003,-0.42903 9.90943,1.95132 8,-3.93717 1.93072,-5.90978 -4.24528,-3.71283 -7.87434,-4.06283 -3.11253,-0.68968 -9.78258,2.17816 -8.12566,-3.28098 1.88191,-5.86097 -3.09379,-4.86432 -7.218148,-4.71902 -1.852363,1.94985 -0.26161,7.34281 -0.781854,10.62478 0,1.79174 0,3.58348 0,5.37522 z m 104.000002,0 c 3.55003,0.42903 9.90943,-1.95132 8,3.93717 1.93072,5.90978 -4.24528,3.71283 -7.87434,4.06283 -0.28543,-2.40359 -0.0474,-5.39156 -0.12566,-8 z" />
</svg>
