<?xml version="1.0" encoding="UTF-8" standalone="no"?>
<svg
   xmlns:dc="http://purl.org/dc/elements/1.1/"
   xmlns:cc="http://creativecommons.org/ns#"
   xmlns:rdf="http://www.w3.org/1999/02/22-rdf-syntax-ns#"
   xmlns:svg="http://www.w3.org/2000/svg"
   xmlns="http://www.w3.org/2000/svg"
   xmlns:xlink="http://www.w3.org/1999/xlink"
   xmlns:sodipodi="http://sodipodi.sourceforge.net/DTD/sodipodi-0.dtd"
   xmlns:inkscape="http://www.inkscape.org/namespaces/inkscape"
   width="500pt"
   height="958pt"
   viewBox="0 0 500 958"
   version="1.1"
   id="svg81"
   sodipodi:docname="ground_ghosts_2.svg"
   inkscape:version="1.0.1 (1.0.1+r73)">
  <metadata
     id="metadata85">
    <rdf:RDF>
      <cc:Work
         rdf:about="">
        <dc:format>image/svg+xml</dc:format>
        <dc:type
           rdf:resource="http://purl.org/dc/dcmitype/StillImage" />
      </cc:Work>
    </rdf:RDF>
  </metadata>
  <sodipodi:namedview
     pagecolor="#ffffff"
     bordercolor="#666666"
     borderopacity="1"
     objecttolerance="10"
     gridtolerance="10"
     guidetolerance="10"
     inkscape:pageopacity="0"
     inkscape:pageshadow="2"
     inkscape:window-width="1853"
     inkscape:window-height="1025"
     id="namedview83"
     showgrid="false"
     inkscape:zoom="1.111691"
     inkscape:cx="223.76356"
     inkscape:cy="800.66894"
     inkscape:window-x="67"
     inkscape:window-y="27"
     inkscape:window-maximized="1"
     inkscape:current-layer="surface1"
     inkscape:document-rotation="0" />
  <defs
     id="defs62">
    <radialGradient
       id="radialGradient1019"
       gradientUnits="userSpaceOnUse"
       cx="9.0498"
       cy="24.0508"
       fx="9.0498"
       fy="24.0508"
       r="2.5245"
       gradientTransform="matrix(20.833333,0,0,-15.361322,0,870.347165)">
      <stop
         offset="0.30788124"
         style="stop-color:#808080;stop-opacity:1"
         id="stop1011" />
      <stop
         offset="0.41478786"
         style="stop-color:#3f3f3f;stop-opacity:0.866667"
         id="stop1013" />
      <stop
         offset="0.75128663"
         style="stop-color:#2e2e2e;stop-opacity:0.494118"
         id="stop1015" />
      <stop
         offset="1"
         style="stop-color:#181818;stop-opacity:0"
         id="stop1017" />
    </radialGradient>
    <linearGradient
       id="linear0"
       gradientUnits="userSpaceOnUse"
       x1="-49.0229"
       y1="-11.7456"
       x2="48.9773"
       y2="-11.7456"
       gradientTransform="matrix(0.0479167,20.826087,-20.833333,0.0479,0.00276742,-0.00980636)">
      <stop
         offset="0"
         style="stop-color:#151515;stop-opacity:1"
         id="stop2" />
      <stop
         offset="0.0667"
         style="stop-color:#1e1e1e;stop-opacity:1"
         id="stop4" />
      <stop
         offset="0.2627"
         style="stop-color:#343434;stop-opacity:1"
         id="stop6" />
      <stop
         offset="0.4353"
         style="stop-color:#434343;stop-opacity:1"
         id="stop8" />
      <stop
         offset="0.5686"
         style="stop-color:#474747;stop-opacity:1"
         id="stop10" />
      <stop
         offset="0.7216"
         style="stop-color:#494949;stop-opacity:1"
         id="stop12" />
      <stop
         offset="0.898"
         style="stop-color:#4d4d4d;stop-opacity:1"
         id="stop14" />
      <stop
         offset="1"
         style="stop-color:#515151;stop-opacity:1"
         id="stop16" />
    </linearGradient>
    <linearGradient
       id="linear1"
       gradientUnits="userSpaceOnUse"
       x1="8.5547"
       y1="-11.2378"
       x2="36.9054"
       y2="-11.2378"
       gradientTransform="matrix(0.147917,20.826087,-20.833333,0.147865,-0.00193598,0.00164394)">
      <stop
         offset="0"
         style="stop-color:#181818;stop-opacity:1"
         id="stop19" />
      <stop
         offset="1"
         style="stop-color:#3a3a3a;stop-opacity:1"
         id="stop21" />
    </linearGradient>
    <radialGradient
       id="radial0"
       gradientUnits="userSpaceOnUse"
       cx="17"
       cy="35.7002"
       fx="17"
       fy="35.7002"
       r="20.8875"
       gradientTransform="matrix(20.833333,0,0,-20.463713,0,1474.087096)">
      <stop
         offset="0"
         style="stop-color:#3a3a3a;stop-opacity:1"
         id="stop24" />
      <stop
         offset="1"
         style="stop-color:#181818;stop-opacity:1"
         id="stop26" />
    </radialGradient>
    <radialGradient
       id="radial1"
       gradientUnits="userSpaceOnUse"
       cx="18"
       cy="38.75"
       fx="18"
       fy="38.75"
       r="19.9625"
       gradientTransform="matrix(20.833333,0,0,-20.590752,0,1604.924904)">
      <stop
         offset="0"
         style="stop-color:#3a3a3a;stop-opacity:1"
         id="stop29" />
      <stop
         offset="1"
         style="stop-color:#181818;stop-opacity:1"
         id="stop31" />
    </radialGradient>
    <radialGradient
       id="radial2"
       gradientUnits="userSpaceOnUse"
       cx="16.4502"
       cy="43.7998"
       fx="16.4502"
       fy="43.7998"
       r="20.3125"
       gradientTransform="matrix(20.833333,0,0,-17.441848,0,1676.162617)">
      <stop
         offset="0"
         style="stop-color:#3a3a3a;stop-opacity:1"
         id="stop34" />
      <stop
         offset="1"
         style="stop-color:#181818;stop-opacity:1"
         id="stop36" />
    </radialGradient>
    <radialGradient
       id="radial3"
       gradientUnits="userSpaceOnUse"
       cx="11.6504"
       cy="7"
       fx="11.6504"
       fy="7"
       r="15.2625"
       gradientTransform="matrix(20.833333,0,0,-24.135352,0,314.727991)">
      <stop
         offset="0.0353"
         style="stop-color:#545454;stop-opacity:1"
         id="stop39" />
      <stop
         offset="1"
         style="stop-color:#181818;stop-opacity:1"
         id="stop41" />
    </radialGradient>
    <radialGradient
       id="radial4"
       gradientUnits="userSpaceOnUse"
       cx="9.0498"
       cy="24.0508"
       fx="9.0498"
       fy="24.0508"
       r="2.5245"
       gradientTransform="matrix(20.833333,0,0,-15.361322,0,870.347165)">
      <stop
         offset="0.2667"
         style="stop-color:#444444;stop-opacity:1"
         id="stop44" />
      <stop
         offset="0.4549"
         style="stop-color:#3f3f3f;stop-opacity:0.866667"
         id="stop46" />
      <stop
         offset="0.7255"
         style="stop-color:#2e2e2e;stop-opacity:0.494118"
         id="stop48" />
      <stop
         offset="1"
         style="stop-color:#181818;stop-opacity:0"
         id="stop50" />
    </radialGradient>
    <radialGradient
       id="radial5"
       gradientUnits="userSpaceOnUse"
       cx="14.75"
       cy="24.0508"
       fx="14.75"
       fy="24.0508"
       r="2.5245"
       gradientTransform="matrix(18.937252,0.02568406,0.02042679,-14.396838,20.367837,850.61644)">
      <stop
         offset="0.45035246"
         style="stop-color:#808080;stop-opacity:1"
         id="stop53" />
      <stop
         offset="0.68726844"
         style="stop-color:#3f3f3f;stop-opacity:0.866667"
         id="stop55" />
      <stop
         offset="0.85505593"
         style="stop-color:#2e2e2e;stop-opacity:0.494118"
         id="stop57" />
      <stop
         offset="1"
         style="stop-color:#181818;stop-opacity:0"
         id="stop59" />
    </radialGradient>
    <radialGradient
       inkscape:collect="always"
       xlink:href="#radialGradient1019"
       id="radialGradient1009"
       gradientUnits="userSpaceOnUse"
       gradientTransform="matrix(17.628714,0.20950196,0.18254307,-15.360238,24.610848,868.42512)"
       cx="9.0497999"
       cy="24.0508"
       fx="9.0497999"
       fy="24.0508"
       r="2.5245" />
    <radialGradient
       id="radial5-7"
       gradientUnits="userSpaceOnUse"
       cx="14.75"
       cy="24.0508"
       fx="14.75"
       fy="24.0508"
       r="2.5244999"
       gradientTransform="matrix(18.893384,0.00342175,0.00246635,-13.61808,-90.195057,828.37032)">
      <stop
         offset="0.45035246"
         style="stop-color:#808080;stop-opacity:1"
         id="stop53-5" />
      <stop
         offset="0.68726844"
         style="stop-color:#3f3f3f;stop-opacity:0.866667"
         id="stop55-3" />
      <stop
         offset="0.82166189"
         style="stop-color:#2e2e2e;stop-opacity:0.494118"
         id="stop57-5" />
      <stop
         offset="1"
         style="stop-color:#181818;stop-opacity:0"
         id="stop59-6" />
    </radialGradient>
    <radialGradient
       inkscape:collect="always"
       xlink:href="#radial5"
       id="radialGradient917"
       gradientUnits="userSpaceOnUse"
       gradientTransform="matrix(18.937252,0.02568406,0.02042679,-14.396838,9.867837,850.61644)"
       cx="14.75"
       cy="24.0508"
       fx="14.75"
       fy="24.0508"
       r="2.5245" />
    <filter
       style="color-interpolation-filters:sRGB;"
       inkscape:label="Blur"
       id="filter977">
      <feGaussianBlur
         stdDeviation="4 4"
         result="blur"
         id="feGaussianBlur975" />
    </filter>
    <filter
       style="color-interpolation-filters:sRGB;"
       inkscape:label="Blur"
       id="filter981">
      <feGaussianBlur
         stdDeviation="4 4"
         result="blur"
         id="feGaussianBlur979" />
    </filter>
  </defs>
  <g
     id="surface1">
    <path
       style="fill:#6b6b6b;fill-opacity:1;fill-rule:evenodd;stroke:none"
       d="M 408.33203,254.07812 C 450,309.62109 476.75,379.03516 488.5625,462.33984 c 4.16797,27.07422 4.16797,57.625 0,91.61328 -4.16797,36.08985 -11.10547,63.53907 -20.83203,82.26172 2.08203,-34.69531 3.10156,-59 3.10156,-72.89062 -11.10156,41.65234 -23.9375,76.37109 -38.53906,104.13281 -9.73047,18.74219 -22.5625,38.54688 -38.54297,59.375 -2.79297,4.14453 -21.1875,21.17969 -55.20703,51 -31.25,27.78516 -46.52344,42.36328 -45.83594,43.75781 l -8.3125,-14.57812 c -17.375,22.19922 -29.16406,47.21094 -35.41406,74.97265 -4.85547,-26.38671 -7.64844,-50.66796 -8.33594,-72.89062 -11.78906,26.38672 -20.125,72.89062 -25,139.53516 -4.16406,-11.78907 -7.28906,-29.13672 -9.375,-52.06641 C 204.1875,870.88281 201.75,853.18359 198.98047,843.45703 192.04297,821.25781 172.25,797.28516 139.60547,771.60547 99.3125,740.36719 75.019531,718.85547 66.6875,707.04687 22.230469,645.96094 0,571.67578 0,484.20703 0,434.91016 13.542969,378.34766 40.625,314.47266 66.3125,252.68359 97.207031,199.92969 133.33203,156.19531 c -0.6875,7.64453 0.6875,18.39063 4.16797,32.28125 21.51953,-20.82812 41.66797,-49.98437 60.41797,-87.46875 C 209.01953,78.785156 223.95703,45.109375 242.70703,0 c 3.46094,8.332031 9.71094,29.511719 18.73047,63.519531 7.64453,29.15625 15.26953,49.984379 22.9375,62.476559 13.875,22.91016 34.01953,45.48438 60.39453,67.6875 30.58594,25.67578 51.75,45.81641 63.5625,60.39453 z m 0,0"
       id="path64" />
    <path
       style="fill:#404040;fill-rule:evenodd;stroke:none"
       d="m 457.29297,477.95703 c 0,82.61719 -21.52344,153.40625 -64.60547,212.42969 -43.04297,59 -94.79297,88.50781 -155.1875,88.50781 -60.41797,0 -112.16797,-29.50781 -155.207031,-88.50781 -43.0625,-59.02344 -64.585938,-129.8125 -64.585938,-212.42969 0,-82.61719 21.1875,-152.38281 63.542969,-209.30078 42.35547,-56.23047 93.75,-84.34375 154.16797,-84.34375 61.125,0 113.20703,28.11328 156.25,84.34375 43.75,56.91797 65.625,126.68359 65.625,209.30078 z m 0,0"
       id="path66" />
    <path
       style="fill:url(#radial0);fill-rule:evenodd;stroke:none"
       d="m 446.875,454.00781 c 0,74.9961 -20.48047,139.20313 -61.45703,192.64063 -41.66797,52.7539 -91.66797,79.14062 -150,79.14062 -58.33594,0 -107.98047,-26.38672 -148.960939,-79.14062 -41.664062,-53.4375 -62.5,-117.64453 -62.5,-192.64063 0,-74.97265 20.835938,-138.84765 62.5,-191.59765 40.980469,-53.46094 90.624999,-80.1836 148.960939,-80.1836 58.33203,0 108.33203,26.72266 150,80.1836 40.97656,52.75 61.45703,116.625 61.45703,191.59765 z m 0,0"
       id="path68" />
    <path
       style="fill:url(#radial1);fill-rule:evenodd;stroke:none"
       d="m 440.625,446.71875 c 0,71.51953 -19.79297,132.93359 -59.39453,184.3125 -38.875,50.69141 -86.10547,76.01562 -141.66797,76.01562 -55.5625,0 -103.125,-25.34765 -142.707031,-76.01562 -38.898438,-50.69141 -58.335938,-112.10938 -58.335938,-184.3125 0,-71.51563 19.4375,-133.28516 58.335938,-185.35156 39.582031,-52.75391 87.164061,-79.14063 142.707031,-79.14063 54.875,0 102.08203,26.38672 141.66797,79.14063 39.60156,52.0664 59.39453,113.85547 59.39453,185.35156 z m 0,0"
       id="path70" />
    <path
       style="fill:url(#radial2);fill-rule:evenodd;stroke:none"
       d="m 440.625,407.14844 c -11.8125,63.1875 -35.08203,114.1914 -69.8125,153.09375 -37.5,41.65234 -82.64453,62.48047 -135.41797,62.48047 -53.45703,0 -97.91406,-20.82813 -133.33203,-62.48047 C 69.4375,521.35937 48.25,470.33594 38.519531,407.14844 c 0,-61.08203 19.4375,-113.83203 58.335938,-158.27735 39.582031,-44.42187 87.164061,-66.64453 142.707031,-66.64453 54.875,0 102.08203,22.22266 141.66797,66.64453 39.60156,44.42188 59.39453,97.19532 59.39453,158.27735 z m 0,0"
       id="path72" />
    <path
       style="fill:url(#radial3);fill-rule:evenodd;stroke:none"
       d="m 82.292969,505.03125 c -4.167969,-10.41016 5.5625,-31.92578 29.164061,-64.55859 27.77344,-38.88282 60.77344,-62.125 98.96094,-69.76954 43.0625,-8.32812 82.28906,0 117.70703,24.99219 32.625,22.91016 59.01953,57.625 79.16797,104.12891 -18.04297,40.28125 -45.125,72.20703 -81.23047,95.80078 -36.10547,23.61719 -78.125,30.55469 -126.04297,20.82812 C 142.35547,604.64453 103.125,567.51172 82.292969,505.03125 Z m 0,0"
       id="path74" />
    <ellipse
       style="fill:#808080;stroke:#000000;stroke-width:0;stroke-linecap:round;stroke-linejoin:round;stroke-miterlimit:10;paint-order:markers fill stroke;filter:url(#filter977)"
       id="path886"
       cx="295.87482"
       cy="494.12643"
       rx="34.207413"
       ry="26.160364" />
    <ellipse
       style="fill:#808080;stroke:#000000;stroke-width:0;stroke-linecap:round;stroke-linejoin:round;stroke-miterlimit:10;paint-order:markers fill stroke;filter:url(#filter981)"
       id="path886-7"
       cx="192.77357"
       cy="494.12643"
       rx="34.207413"
       ry="26.160364" />
  </g>
</svg>
