<?xml version="1.0" encoding="UTF-8" standalone="no"?>
<svg
   xmlns:dc="http://purl.org/dc/elements/1.1/"
   xmlns:cc="http://creativecommons.org/ns#"
   xmlns:rdf="http://www.w3.org/1999/02/22-rdf-syntax-ns#"
   xmlns:svg="http://www.w3.org/2000/svg"
   xmlns="http://www.w3.org/2000/svg"
   xmlns:sodipodi="http://sodipodi.sourceforge.net/DTD/sodipodi-0.dtd"
   xmlns:inkscape="http://www.inkscape.org/namespaces/inkscape"
   id="svg2"
   xml:space="preserve"
   viewBox="0 0 43.295 11.29"
   version="1.1"
   inkscape:version="1.0 (1.0+r73+1)"
   sodipodi:docname="tools-spindle.svg"><defs
   id="defs35"><inkscape:path-effect
   effect="bspline"
   id="path-effect1090"
   is_visible="true"
   lpeversion="1"
   weight="33.333333"
   steps="2"
   helper_size="0"
   apply_no_weight="true"
   apply_with_weight="true"
   only_selected="false" /><inkscape:path-effect
   effect="bspline"
   id="path-effect1086"
   is_visible="true"
   lpeversion="1"
   weight="33.333333"
   steps="2"
   helper_size="0"
   apply_no_weight="true"
   apply_with_weight="true"
   only_selected="false" /><inkscape:path-effect
   effect="bspline"
   id="path-effect1082"
   is_visible="true"
   lpeversion="1"
   weight="33.333333"
   steps="2"
   helper_size="0"
   apply_no_weight="true"
   apply_with_weight="true"
   only_selected="false" /><inkscape:path-effect
   effect="bspline"
   id="path-effect915"
   is_visible="true"
   lpeversion="1"
   weight="33.333333"
   steps="2"
   helper_size="0"
   apply_no_weight="true"
   apply_with_weight="true"
   only_selected="false" />
    
  
      
      
      
      
      
      
      
      
      
      
      
      
      
      
      
      
      
      
      
      
      
      
      
      
      
      
    </defs><sodipodi:namedview
   inkscape:document-rotation="0"
   pagecolor="#ffffff"
   bordercolor="#666666"
   borderopacity="1"
   objecttolerance="10"
   gridtolerance="10"
   guidetolerance="10"
   inkscape:pageopacity="0"
   inkscape:pageshadow="2"
   inkscape:window-width="1853"
   inkscape:window-height="1025"
   id="namedview33"
   showgrid="false"
   inkscape:zoom="27.34727"
   inkscape:cx="21.647499"
   inkscape:cy="5.645"
   inkscape:window-x="67"
   inkscape:window-y="27"
   inkscape:window-maximized="1"
   inkscape:current-layer="svg2" />
  <path
   id="path14"
   style="fill:#8c8c8c;fill-rule:evenodd;stroke-width:1.25;fill-opacity:1"
   d="m 14.0675,2.04125 0.9475,0.0975 c -0.865,0.66875 -1.1675,1.3675 -0.89875,2.1 l -3.05125,-0.2 C 10.06875,3.975 8.36375,3.72625 5.96625,3.29125 3.39875,2.85625 1.7675,2.55875 1.065,2.3925 0.69875,2.29 0.38125,2.1925 0.1175,2.09 L 0.86375,1.89 C 1.09875,2.02625 1.65,2.17375 2.515,2.33875 6.5475,2.74 9.2675,3.0425 10.66375,3.2425 l 2.7,0.34625 c -0.0625,-0.0625 -0.0825,-0.2 -0.04875,-0.395 0.035,-0.44 0.28375,-0.82 0.7525,-1.1525 z m 7.14875,0.4 L 22.1675,2.49 c 1.7675,1.76875 2.5975,3.0325 2.5,3.8 C 23.8325,5.7575 23.46625,5.425 23.565,5.28875 23.70125,4.99 23.515,4.575 23.0175,4.03875 22.915,3.94125 22.8325,3.8575 22.76375,3.79 c 0,-0.035 -0.015,-0.06375 -0.04875,-0.09875 -0.46375,-0.43375 -0.9675,-0.84875 -1.49875,-1.25 z"
   inkscape:connector-curvature="0" /><path
   id="path16"
   style="fill:#a6a6a6;fill-rule:evenodd;stroke-width:1.25;fill-opacity:1"
   d="M 24.815,6.33875 24.6675,6.29 C 24.765,5.5225 23.935,4.25875 22.1675,2.49 L 30.46875,2.98875 29.4675,3.54 C 28.735,3.975 28.315,4.39 28.2175,4.79 28.08125,5.45875 28.19875,6.1425 28.565,6.84125 Z M 0.1175,2.09 c 0.5325,-0.36625 2.265,-0.5175 5.2,-0.44875 -0.80125,0 -1.5675,0.015 -2.3,0.04875 -0.2,0.06875 -0.04875,0.13625 0.44875,0.2 2.59875,0.3025 4.04875,0.435 4.35125,0.4 0.2975,0 0.85,0.06875 1.65,0.2 0.7325,0.23 1.3825,0.28375 1.94875,0.1475 0.86875,-0.16625 1.3525,-0.25 1.45,-0.25 0.2,-0.0975 0.22,-0.22875 0.04875,-0.4 l 1.1525,0.05375 c -0.46875,0.3325 -0.7175,0.7125 -0.7525,1.1475 -0.03375,0.2 -0.01375,0.3325 0.04875,0.4 l -2.7,-0.35125 C 9.2675,3.0375 6.5475,2.74 2.515,2.33875 1.65,2.17375 1.09875,2.02125 0.86375,1.89 Z"
   inkscape:connector-curvature="0" /><path
   id="path18"
   style="fill:#bfbfbf;fill-rule:evenodd;stroke-width:1.25"
   d="m 5.3175,1.64125 2.34875,0.0975 c 0.16625,-0.03 0.35125,-0.03 0.55125,0 L 12.915,1.9925 c 0.17125,0.16625 0.15125,0.2975 -0.04875,0.395 -0.0975,0 -0.58125,0.08375 -1.45,0.255 C 10.85,2.77375 10.2,2.725 9.4675,2.49 8.6675,2.35875 8.115,2.29 7.8175,2.29 7.515,2.325 6.065,2.1925 3.46625,1.89 2.96875,1.82625 2.8175,1.75875 3.0175,1.69 3.75,1.65625 4.51625,1.64125 5.3175,1.64125 Z"
   inkscape:connector-curvature="0" /><path
   id="path20"
   style="fill:#737373;fill-rule:evenodd;stroke-width:1.25;fill-opacity:1"
   d="m 15.015,2.13875 6.05,0.3025 0.1025,-0.05375 0.04875,0.05375 c 0.53125,0.40125 1.035,0.81625 1.49875,1.25 0.03375,0.03 0.05375,0.06375 0.05375,0.09875 C 22.8325,3.8575 22.915,3.94125 23.0175,4.03875 23.515,4.575 23.70125,4.99 23.565,5.28875 23.46625,5.425 23.8325,5.7575 24.6675,6.29 L 24.815,6.33875 6.71875,3.99 C 2.01625,3.29125 -0.215,2.725 0.015,2.29 0.04875,2.2225 0.0825,2.15875 0.1175,2.09 c 0.26875,0.1025 0.58125,0.2 0.9475,0.3025 0.7025,0.16625 2.33375,0.46375 4.90125,0.89875 2.3975,0.435 4.1025,0.68375 5.09875,0.7475 l 3.05125,0.2 C 13.8475,3.50625 14.15,2.8075 15.015,2.13875 Z"
   inkscape:connector-curvature="0" /><path
   id="path22"
   style="fill:#afafaf;fill-rule:evenodd;stroke-width:1.25;fill-opacity:1"
   d="m 17.6175,0.99125 0.4975,-0.3025 h -0.44875 c 0.1025,-0.13125 0.33125,-0.16625 0.6975,-0.0975 0.1025,0 0.20125,0.015 0.30375,0.04875 0.13125,0.03375 0.24875,0.0825 0.35125,0.15125 l 0.2,0.44875 c 0.23,-0.0675 0.43,-0.15125 0.59625,-0.24875 0.3025,-0.1025 0.5025,-0.11625 0.6,-0.05375 -0.03375,0.1375 0,0.26875 0.1025,0.40125 0.23,-0.16625 0.83,-0.18125 1.7975,-0.04875 0.33625,-0.035 0.57125,-0.1025 0.7025,-0.20125 0.2975,-0.03375 0.5325,0 0.69875,0.1025 0.13625,0.03 0.26875,0.19625 0.4,0.49875 0.4975,-0.235 0.80125,-0.3325 0.89875,-0.3025 0.13625,0 0.22,0.01875 0.24875,0.05375 0.03375,0.02875 0.06875,0.0975 0.1025,0.2 0.1025,0.06375 0.215,0.0825 0.35125,0.04875 0.16625,-0.06875 0.2975,-0.1175 0.40125,-0.15125 -0.46875,0.3025 -0.9525,0.84875 -1.45125,1.65 -0.1025,-0.4 -0.17,-0.615 -0.2,-0.64875 0,-0.235 0.04875,-0.40125 0.14625,-0.49875 L 23.565,2.54 C 23.58375,2.515 23.59875,2.49 23.61875,2.46625 23.6325,2.4375 23.6525,2.4125 23.6675,2.3875 V 2.33875 c 0.2,-0.4 0.2825,-0.6825 0.24875,-0.84875 l -0.5525,0.15125 c 0.035,-0.1375 -0.2,-0.22 -0.6975,-0.25375 -0.1025,0 -0.40125,0.11625 -0.89875,0.35125 L 21.865,1.5925 C 21.63625,1.42125 21.08375,1.49 20.22,1.7875 20.185,1.5575 19.985,1.52375 19.61875,1.69 c -0.17,0.0975 -0.43375,0.215 -0.8,0.35125 C 18.71625,1.875 18.70125,1.75875 18.77,1.69 18.56875,1.65625 18.28625,1.73875 17.92,1.93875 17.92,1.905 18.08625,1.64125 18.4175,1.1375 18.115,1.10875 17.72,1.33875 17.21625,1.84125 17.14875,1.87 17.0025,1.9875 16.7675,2.1875 c 0,-0.2975 0.1325,-0.56625 0.4,-0.8 l 0.15125,-0.0975 0.25,-0.30375 h 0.04875 z"
   inkscape:connector-curvature="0" /><path
   id="path24"
   style="fill:#636363;fill-rule:evenodd;stroke-width:1.25;fill-opacity:1"
   d="M 17.1675,1.3925 16.81625,1.64125 16.5675,1.7875 C 16.1325,2.05625 15.89875,2.2225 15.86375,2.29 H 15.815 c 0.1325,-0.4 0.38625,-0.7175 0.7525,-0.95125 0.4975,-0.20125 0.88375,-0.3475 1.1475,-0.45 l -0.0975,0.1025 H 17.56875 L 17.315,1.29 Z M 14.96625,5.39125 C 14.8,5.05375 14.6675,4.61 14.565,4.03875 l 0.04875,0.05375 c 0.1375,0.02875 0.30375,0.01375 0.50375,-0.05375 l 0.04875,0.24875 0.1025,1.10375 c 0.06375,0.2 0.0975,0.3175 0.0975,0.35125 L 15.1175,5.19125 c 0.03375,0.0975 0.04875,0.215 0.04875,0.35125 z M 28.6675,1.1375 29.6925,1.19125 30.7175,1.24 30.96625,1.3925 V 1.49 c 0.20125,0.13625 0.51875,0.43375 0.9475,0.8975 -0.0975,0 -0.16625,-0.01375 -0.195,-0.04875 C 31.38125,2.17375 30.85,2.0075 30.1175,1.84125 29.185,1.5725 28.50125,1.52375 28.06625,1.69 c -1.00125,0.5325 -1.69875,1.29875 -2.1,2.3 -0.1025,0.23375 -0.2675,0.53125 -0.5025,0.8975 -0.2,0.435 -0.2975,0.78625 -0.2975,1.055 l 0.0975,0.9475 c 0.06875,0.36625 0.06875,0.56625 0,0.6 -0.02875,0.10375 -0.0975,0.1325 -0.2,0.10375 C 24.86875,7.525 24.75125,7.505 24.71625,7.54 c -0.1025,0.3025 -0.4825,0.36625 -1.15125,0.2 -0.06375,0 -0.43,-0.18625 -1.09875,-0.5475 l 0.1025,0.14625 C 22.4025,7.37375 22.2025,7.29 21.9675,7.09 21.665,6.85625 21.465,6.7725 21.3675,6.84125 21.29875,6.84125 21.25,6.89 21.21625,6.9875 21.1475,7.02125 21.08375,7.04125 21.015,7.04125 c -0.165,0 -0.42875,-0.06875 -0.8,-0.2 0.13625,0.16625 0,0.215 -0.4,0.14625 -0.3325,0 -0.58125,-0.04875 -0.7475,-0.14625 -0.06875,-0.03375 -0.1325,-0.13625 -0.2,-0.3025 -0.06875,-0.035 -0.1325,-0.015 -0.2,0.05375 -0.1025,0 -0.22,0.02875 -0.3525,0.0975 C 18.2475,6.65625 18.19875,6.62625 18.16375,6.5925 18.1,6.49 18.0175,6.44125 17.915,6.44125 17.85125,6.475 17.78375,6.5575 17.715,6.69 17.5825,6.72375 17.3825,6.65625 17.11375,6.49 16.885,6.3925 16.71875,6.275 16.61625,6.1375 16.5825,6.5725 16.3475,6.3575 15.9175,5.48875 L 15.615,4.74125 c 0.1025,0.1325 0.235,0.16625 0.4,0.0975 0.16625,0.40125 0.3525,0.635 0.5525,0.70375 0.0975,-0.235 0.18,-0.38625 0.24875,-0.44875 0.0975,0 0.2975,0.01375 0.60125,0.04875 0.63375,0.2 1.1175,0.31625 1.45,0.35125 h 0.4 c 0.03375,0 0.04875,-0.06875 0.04875,-0.2 C 19.35,5.225 19.41375,5.21 19.51625,5.24 c 0.06875,0.03375 0.1325,0.13625 0.2,0.3025 0.035,0.13125 0.09875,0.18 0.20125,0.15125 0.0625,0 0.165,-0.13625 0.2975,-0.4 l 0.5025,-0.40625 0.2,0.70375 c 0.23,0 0.40125,-0.1025 0.49875,-0.3025 C 21.485,5.3225 21.53375,5.44 21.5675,5.64 c 0.0975,0.1025 0.16625,0.185 0.2,0.24875 0.0975,0.1375 0.35125,0.235 0.7475,0.3025 C 22.94875,6.255 23.2325,6.24 23.36875,6.1375 23.26625,5.9425 23.2325,5.825 23.26625,5.79125 23.6325,6.08875 23.81875,6.04 23.81875,5.64 L 24.365,6.33875 c 0.1025,-0.49875 0.2,-0.865 0.3025,-1.09875 0.06375,0.13125 0.1475,0.35125 0.25,0.64875 0,0.035 0.03375,0.06875 0.1025,0.1025 C 24.9175,5.655 24.8825,5.3225 24.9175,4.99 25.02,4.65875 25.1025,4.43875 25.16625,4.34125 25.26875,4.2725 25.36625,4.0725 25.46875,3.74 25.6,3.34 26.08375,2.87125 26.91875,2.33875 27.8175,1.64125 28.39875,1.24 28.6675,1.1375 Z"
   inkscape:connector-curvature="0" /><path
   id="path26"
   style="fill:#969696;fill-rule:evenodd;stroke-width:1.25;fill-opacity:1"
   d="M 16.81625,1.64125 17.1675,1.3925 c -0.2675,0.22875 -0.4,0.4975 -0.4,0.8 0.23,-0.2 0.38125,-0.3175 0.44875,-0.35125 C 17.715,1.33875 18.115,1.10875 18.4175,1.1375 18.08625,1.64125 17.915,1.91 17.915,1.93875 c 0.36625,-0.2 0.65,-0.2825 0.85,-0.24875 -0.06375,0.06875 -0.04875,0.185 0.05375,0.35125 C 19.185,1.91 19.44875,1.7925 19.61375,1.69 19.985,1.52375 20.185,1.5575 20.215,1.7925 c 0.86875,-0.3025 1.42125,-0.36625 1.65,-0.2 l -0.0975,0.14625 c 0.4975,-0.23 0.80125,-0.34625 0.89875,-0.34625 0.4975,0.02875 0.7325,0.11125 0.6975,0.24875 L 23.91625,1.49 C 23.95,1.65625 23.8675,1.93875 23.6675,2.33875 c -0.635,0.30375 -1.085,0.65 -1.3525,1.05 -0.16625,-0.195 -0.16625,-0.5325 0,-0.99625 0.165,-0.4 0.36625,-0.68375 0.6,-0.85375 -0.3325,0.17 -0.69875,0.4 -1.09875,0.7025 C 21.685,2.44125 21.41625,2.74 21.015,3.14 20.88375,3.00875 20.86375,2.8075 20.96625,2.54 21.09875,2.305 21.1675,2.125 21.1675,1.9875 20.5325,2.58875 20.18125,3.155 20.1175,3.69125 20.015,3.69125 19.8,3.74 19.4675,3.83875 19.33625,3.74 19.41375,3.4425 19.71625,2.94 c -0.23375,0 -0.5175,0.13625 -0.84875,0.4 -0.2,0.2 -0.56625,0.4 -1.09875,0.60125 -0.06875,-0.435 -0.1375,-0.65 -0.2,-0.65 C 17.43125,3.125 17.3,3.125 17.1675,3.29125 17.065,3.325 16.93375,3.2225 16.7675,2.98875 16.60125,2.89125 16.45,2.87625 16.31875,2.94 c -0.17125,-0.26875 0,-0.69875 0.4975,-1.29875 z M 15.86375,2.29 C 15.69875,2.45625 15.5175,2.57375 15.3175,2.6425 15.185,2.44125 15.15125,2.2075 15.215,1.94375 15.58625,1.44125 16.1475,1.055 16.91375,0.79125 l 1.10375,-0.0975 h 0.0975 l -0.4975,0.2975 0.0975,-0.1025 c -0.26375,0.1025 -0.65,0.25375 -1.1475,0.455 C 16.20125,1.5725 15.9475,1.89 15.815,2.29 Z M 30.96625,1.3925 30.7175,1.24 h 0.04875 z M 18.6675,0.64 19.11625,0.59125 27.515,1.04 29.6925,1.19125 28.6675,1.1375 27.515,1.04 26.3675,1.73875 c -0.16625,0.23375 -0.415,0.62 -0.7525,1.1525 l 0.04875,-0.45 C 25.26875,2.74 25,3.07625 24.86875,3.4425 L 24.565,4.19 24.4675,3.74 c 0,0.16625 -0.13625,0.26875 -0.4,0.29875 -0.235,0.03375 -0.4,-0.015 -0.5025,-0.14625 C 23.53,3.49125 23.48125,3.2575 23.4175,3.19375 23.4175,2.955 23.46625,2.735 23.565,2.54 L 24.61375,2.04125 C 24.51625,2.14375 24.4675,2.31 24.4675,2.54 c 0.03,0.03375 0.0975,0.25375 0.2,0.65375 0.49875,-0.80125 0.9825,-1.3525 1.45125,-1.65 C 26.015,1.5775 25.88375,1.62625 25.7175,1.69 25.58125,1.72375 25.46875,1.70875 25.36625,1.64125 25.3325,1.53875 25.2975,1.475 25.26375,1.44125 25.23,1.40625 25.15125,1.3925 25.015,1.3925 24.9175,1.3575 24.61375,1.455 24.11625,1.69 23.985,1.3925 23.8475,1.22625 23.71625,1.19125 23.55,1.08875 23.315,1.055 23.0175,1.08875 22.88625,1.19125 22.65125,1.255 22.315,1.29 21.3525,1.1575 20.7525,1.1725 20.5175,1.34375 20.415,1.20625 20.38625,1.075 20.415,0.9425 20.3175,0.875 20.1175,0.88875 19.815,0.99125 19.64875,1.09375 19.44875,1.1775 19.21875,1.24 l -0.2,-0.44875 C 18.91625,0.7225 18.79875,0.67375 18.6675,0.64 Z"
   inkscape:connector-curvature="0" /><path
   id="path28"
   style="fill:#7d7d7d;fill-rule:evenodd;stroke-width:1.25;fill-opacity:1"
   d="m 23.565,2.54 c -0.09875,0.195 -0.1475,0.41 -0.1475,0.64875 0.06375,0.06875 0.1175,0.3025 0.1475,0.70375 0.1025,0.13125 0.2675,0.18 0.5025,0.14625 0.26875,-0.035 0.4,-0.1325 0.4,-0.29875 L 24.565,4.19 24.86875,3.4425 C 25,3.07625 25.26375,2.74 25.66375,2.44125 l -0.04875,0.45 c 0.3325,-0.5325 0.58625,-0.91875 0.7525,-1.1525 L 27.515,1.04 28.6675,1.1425 C 28.39875,1.24 27.8125,1.64125 26.91375,2.33875 26.07875,2.87625 25.6,3.34 25.46375,3.74 c -0.0975,0.3325 -0.2,0.5325 -0.2975,0.60125 C 25.0975,4.44375 25.015,4.65875 24.9175,4.99 c -0.035,0.3325 0,0.67 0.0975,1.00125 C 24.95125,5.9575 24.9175,5.92375 24.9175,5.88875 24.815,5.59125 24.73125,5.37125 24.6625,5.24 24.565,5.47375 24.4675,5.84 24.365,6.34375 L 23.81875,5.64 c 0,0.4 -0.18625,0.44875 -0.5525,0.15125 -0.03375,0.03375 0,0.14625 0.1025,0.34625 C 23.2325,6.24 22.94875,6.255 22.515,6.19125 22.11875,6.12375 21.865,6.02625 21.7675,5.88875 21.73375,5.825 21.665,5.7425 21.5675,5.64 21.53375,5.44 21.485,5.3225 21.41625,5.28875 c -0.0975,0.2 -0.26875,0.3025 -0.49875,0.3025 l -0.2,-0.70375 -0.5025,0.40125 c -0.1325,0.26875 -0.23,0.4 -0.2975,0.4 C 19.815,5.7225 19.75125,5.67375 19.71625,5.5375 19.64875,5.37125 19.585,5.27375 19.51625,5.24 c -0.1025,-0.035 -0.16625,-0.02 -0.2,0.04875 0,0.13625 -0.015,0.2 -0.04875,0.2 h -0.4 C 18.535,5.455 18.05125,5.3425 17.4175,5.1375 17.11375,5.1075 16.91375,5.08875 16.81625,5.08875 16.7475,5.15625 16.665,5.3025 16.5675,5.5375 16.3675,5.47375 16.18125,5.24 16.015,4.83875 15.85,4.9075 15.7175,4.87375 15.615,4.73625 15.415,4.3025 15.3175,3.94125 15.3175,3.6375 l -0.15125,0.65 -0.04875,-0.24875 c -0.2,0.0675 -0.36625,0.0875 -0.50375,0.05375 L 14.565,4.03875 14.61375,3.79 V 3.74 c 0.035,-0.4 0.1375,-0.78125 0.30375,-1.14625 L 15.06875,2.29 c 0.02875,-0.13125 0.0825,-0.24875 0.14625,-0.35125 -0.06375,0.26875 -0.03,0.5025 0.1025,0.70375 0.2,-0.06875 0.38125,-0.18625 0.54625,-0.3525 0.035,-0.0675 0.26875,-0.23375 0.70375,-0.5025 l 0.24875,-0.14625 c -0.4975,0.6 -0.66875,1.03 -0.4975,1.29875 0.13125,-0.06375 0.2825,-0.04875 0.44875,0.04875 0.16625,0.23375 0.2975,0.33625 0.4,0.3025 0.1325,-0.16625 0.26375,-0.16625 0.40125,0 0.0625,0 0.13125,0.215 0.2,0.65 C 18.30125,3.74 18.6675,3.54 18.8675,3.34 c 0.33125,-0.26875 0.615,-0.4 0.84875,-0.4 -0.3025,0.5025 -0.38,0.8 -0.24875,0.89875 0.3325,-0.09875 0.5475,-0.1475 0.65,-0.1475 0.0675,-0.53125 0.415,-1.1025 1.05,-1.69875 0,0.1325 -0.06875,0.3125 -0.20125,0.5475 -0.1025,0.2675 -0.0825,0.46875 0.04875,0.6 0.40125,-0.4 0.67,-0.69875 0.80125,-0.89875 0.4,-0.2975 0.76625,-0.5325 1.10375,-0.6975 -0.235,0.165 -0.435,0.44875 -0.605,0.84875 -0.16625,0.46875 -0.16625,0.80125 0,1.00125 0.2675,-0.4 0.7175,-0.75125 1.3525,-1.05 V 2.3925 c -0.015,0.02 -0.035,0.04875 -0.04875,0.07375 C 23.59875,2.49 23.58375,2.515 23.565,2.54 Z"
   inkscape:connector-curvature="0" /><path
   id="path30"
   style="fill:#4a4a4a;fill-rule:evenodd;stroke-width:1.25;fill-opacity:1"
   d="m 31.91375,2.3875 c 0.06875,0.1375 0.15125,0.26875 0.25375,0.40125 0.865,1.26875 1.03125,2.51875 0.49875,3.75 -0.49875,1.26875 -1.285,2.11875 -2.34875,2.55375 -0.56625,0.22875 -1.05,0.33125 -1.45,0.2975 L 16.71875,7.1925 C 16.015,6.82625 15.48375,6.32375 15.1175,5.68875 L 14.96625,5.44 V 5.39125 l 0.2,0.14625 c 0,-0.13125 -0.015,-0.24875 -0.04875,-0.34625 l 0.24875,0.54625 c 0,-0.02875 -0.03375,-0.14625 -0.0975,-0.34625 l -0.1025,-1.10375 0.15125,-0.65 c 0,0.30375 0.0975,0.67 0.2975,1.10375 l 0.3025,0.7475 c 0.43,0.86875 0.665,1.08375 0.69875,0.64875 0.1025,0.1375 0.26875,0.255 0.4975,0.3525 0.26875,0.16625 0.46875,0.23375 0.60125,0.2 0.06875,-0.1325 0.13625,-0.215 0.2,-0.24875 0.1025,0 0.185,0.04875 0.24875,0.15125 0.035,0.02875 0.08375,0.06375 0.15125,0.0975 0.1325,-0.06375 0.25,-0.0975 0.3525,-0.0975 0.0625,-0.06875 0.13125,-0.08875 0.2,-0.05375 0.0675,0.16625 0.13125,0.26875 0.2,0.3025 0.16625,0.0975 0.415,0.14625 0.7475,0.14625 0.4,0.06875 0.53625,0.02 0.4,-0.14625 0.37125,0.13125 0.635,0.2 0.8,0.2 0.06875,0 0.1325,-0.02 0.20125,-0.05375 C 21.25,6.89 21.29875,6.84125 21.3675,6.84125 c 0.0975,-0.06875 0.2975,0.015 0.6,0.24875 0.23,0.2 0.435,0.28375 0.60125,0.24875 L 22.46625,7.1925 C 23.135,7.55375 23.50125,7.74 23.565,7.74 c 0.66875,0.16625 1.04875,0.1025 1.15125,-0.2 0.035,-0.035 0.1525,-0.015 0.3525,0.05375 0.0975,0.02875 0.16625,0 0.2,-0.10375 0.06375,-0.03375 0.06375,-0.23375 0,-0.6 l -0.1025,-0.9475 c 0,-0.26875 0.1025,-0.62 0.3025,-1.055 0.23,-0.36625 0.395,-0.66375 0.4975,-0.8975 0.40125,-1.00125 1.09875,-1.7675 2.1,-2.3 0.435,-0.16625 1.11875,-0.1175 2.05125,0.15125 0.7325,0.16625 1.26875,0.3325 1.60125,0.4975 0.02875,0.035 0.0975,0.04875 0.195,0.04875 z"
   inkscape:connector-curvature="0" /><path
   id="path32"
   style="fill:#d9d9d9;fill-rule:evenodd;stroke-width:1.25;fill-opacity:1"
   d="m 29.31625,0.44 c 0.16625,-0.03375 0.215,0.06875 0.15125,0.3025 -0.1025,0.1325 -0.185,0.24875 -0.24875,0.34625 -0.03375,0.06875 -0.3375,0.3175 -0.90375,0.7525 -0.4975,0.4975 -0.86375,1.015 -1.09875,1.5475 -0.2,0.435 -0.385,1.035 -0.55125,1.8025 C 26.53375,5.92375 26.435,6.3575 26.3675,6.49 26.265,6.66 26.1475,6.5775 26.015,6.24 25.88375,5.9425 25.83,5.57625 25.86375,5.1425 L 26.1675,4.03875 c 0.4975,-1.43125 1.3325,-2.53 2.5,-3.29625 0.0625,0 0.14625,-0.03375 0.24875,-0.1025 0.06875,-0.06375 0.16625,-0.13125 0.3025,-0.2 z"
   inkscape:connector-curvature="0" /><path
   id="path34"
   style="fill:#bfbfbf;fill-rule:evenodd;stroke-width:1.25"
   d="m 29.2675,1.73875 c -1.10375,0.635 -1.7825,1.7525 -2.05125,3.355 -0.165,0.86375 -0.3025,1.89875 -0.4,3.1 -0.13125,0.23 -0.33125,0.26375 -0.6,0.0975 C 26.18125,8.2275 26.1475,8.16 26.11875,8.09125 25.615,6.75875 25.635,5.41 26.1675,4.04375 L 25.86375,5.1425 c -0.03375,0.43375 0.02,0.8 0.15125,1.0975 0.1325,0.3375 0.25,0.42 0.3525,0.255 0.06375,-0.1375 0.16625,-0.5675 0.2975,-1.30375 0.16625,-0.7675 0.35125,-1.3625 0.55125,-1.7975 0.235,-0.5325 0.60125,-1.05 1.09875,-1.5525 0.56625,-0.435 0.87,-0.68375 0.90375,-0.7475 C 29.2825,0.99125 29.365,0.875 29.4675,0.7425 29.53125,0.50875 29.4825,0.41 29.31625,0.44 c 0.3325,-0.16625 0.65,-0.28375 0.9525,-0.34625 0.395,-0.10375 0.83,-0.1175 1.29875,-0.05375 -0.03375,0.23375 -0.24875,0.5025 -0.65,0.8 -0.4,0.1025 -0.7325,0.215 -1,0.35125 -0.235,0.1325 -0.45,0.3125 -0.65,0.5475 z"
   inkscape:connector-curvature="0" /><path
   id="path36"
   style="fill:#a6a6a6;fill-rule:evenodd;stroke-width:1.25;fill-opacity:1"
   d="m 31.41625,1.1375 c 0.46875,-0.0625 0.9175,-0.02875 1.3525,0.1025 0.2975,0.1325 0.5325,0.29875 0.6975,0.49875 0.40125,0.5375 0.61625,1.06875 0.65,1.60125 0.06875,0.3325 0.06875,0.58625 0,0.7525 -0.06875,0.13125 -0.235,0.26875 -0.4975,0.4 L 33.565,4.54125 c -0.465,-0.2 -0.7325,-0.3025 -0.79625,-0.3025 0.5325,-0.23 0.83,-0.5475 0.89875,-0.9475 C 33.70125,2.75875 33.515,2.29 33.115,1.89 32.88625,1.69 32.33375,1.455 31.465,1.19125 Z m 0.64875,6.905 c 0.1375,0.26375 0.16625,0.44875 0.1025,0.54625 C 32.13375,8.79 31.9675,8.955 31.67,9.0925 c -0.37125,0.2 -0.7175,0.3175 -1.055,0.35125 -0.26375,0.02875 -0.58125,0 -0.9475,-0.1025 C 29.4,9.23875 29.17,9.10625 28.97,8.94125 28.8325,8.6725 28.70125,8.40875 28.56875,8.14 28.46625,7.91 28.40375,7.69125 28.36875,7.49 28.4325,7.525 28.535,7.54 28.6675,7.54 29.00375,7.57375 29.37,7.51 29.77,7.34375 30.1025,7.27625 30.435,7.11 30.76625,6.84125 l 0.1025,0.35125 C 31.035,7.49 31.235,7.71 31.47,7.8425 c 0.0975,0.13125 0.2975,0.2 0.595,0.2 z"
   inkscape:connector-curvature="0" /><path
   id="path38"
   style="fill:#bfbfbf;fill-rule:evenodd;stroke-width:1.25;fill-opacity:1"
   d="m 28.36375,7.49 c -0.395,-1.2 -0.38,-2.3475 0.05375,-3.45125 C 28.8525,2.77375 29.6,1.89 30.66375,1.3925 30.89875,1.29 31.1475,1.20625 31.41625,1.1425 L 31.465,1.19125 C 32.33375,1.46 32.88625,1.69 33.115,1.89 c 0.4,0.4 0.58625,0.86875 0.5525,1.40125 -0.06875,0.4 -0.36625,0.7175 -0.89875,0.9475 -0.16625,0 -0.35125,0.06875 -0.5525,0.2 L 31.015,4.94125 c -0.4975,0.465 -0.58,1.09875 -0.24875,1.9 C 30.435,7.11 30.1025,7.27625 29.765,7.33875 29.365,7.505 28.99875,7.57375 28.6675,7.54 28.53,7.54 28.4325,7.525 28.36375,7.49 Z M 29.765,2.58875 28.81875,3.74 C 28.55,4.375 28.515,4.94125 28.71625,5.44 c 0.03375,0.16625 0.2,0.23375 0.5025,0.2 L 29.4675,5.59125 C 29.53125,5.5575 29.6,5.3225 29.6675,4.8875 l 0.45,-1.1475 c 0.06375,-0.1025 0.33125,-0.415 0.8,-0.95125 C 31.38125,2.45625 31.435,2.2225 31.065,2.09 Z"
   inkscape:connector-curvature="0" /><path
   id="path40"
   style="fill:#8c8c8c;fill-rule:evenodd;stroke-width:1.25;fill-opacity:1"
   d="m 27.515,10.19125 0.15125,-0.04875 c 0.26875,-0.1025 0.4,-0.22 0.4,-0.3525 C 28.1,9.65875 28.0475,9.39 27.915,8.99 27.54875,7.6225 27.36875,6.84125 27.36875,6.64125 c -0.17125,-1.3675 0.0625,-2.52 0.6975,-3.4525 0.4,-0.635 0.80125,-1.11375 1.20125,-1.45 0.2,-0.235 0.415,-0.415 0.65,-0.5475 C 30.18125,1.055 30.5175,0.9375 30.9125,0.84 31.015,0.77125 31.1675,0.7375 31.3675,0.7375 32.265,0.64 32.715,0.5425 32.715,0.44 c 0.1025,0.03375 0.2,0.1025 0.3025,0.2 0.06875,0.04375 0.13625,0.0975 0.2,0.15125 0.03,0.0975 -0.0675,0.14625 -0.3025,0.14625 -0.06375,0 -0.13125,-0.01375 -0.2,-0.04875 -0.2975,-0.1025 -0.58125,-0.15125 -0.85,-0.15125 -0.13125,0 -0.24875,0.02 -0.35125,0.05375 L 31.11875,0.84 C 30.98125,0.875 30.85,0.92375 30.7175,0.99125 c -0.13625,0 -0.26875,0.04875 -0.4,0.14625 -0.3025,0.1375 -0.56625,0.28375 -0.80125,0.45 l -0.2,0.15125 C 29.21875,1.8075 29.17,1.875 29.17,1.93875 28.8325,2.24125 28.565,2.6225 28.36875,3.09125 L 28.0175,3.74 27.96875,3.79 c -0.2,0.46875 -0.3025,0.88375 -0.3025,1.25 -0.16625,1.06875 -0.035,2.09875 0.4,3.1 0.0975,0.16625 0.16625,0.3325 0.2,0.5025 l 0.0975,0.25 c 0.1025,0.33125 0.36625,0.815 0.80125,1.45 0.26875,0.43375 0.3175,0.6975 0.15125,0.8 L 29.165,11.24 l -0.4,-0.2 c -0.16625,-0.0975 -0.3325,-0.2 -0.49875,-0.2975 l -0.2,-0.1025 c -0.2,-0.14125 -0.385,-0.2925 -0.55125,-0.44875 z"
   inkscape:connector-curvature="0" /><path
   id="path42"
   style="fill:#737373;fill-rule:evenodd;stroke-width:1.25;fill-opacity:1"
   d="m 28.965,8.94125 c 0.4,0.8 0.85,1.29875 1.3525,1.49875 l 0.04875,0.04875 c 0.435,0.2 1.08375,0.185 1.94875,-0.04875 h 0.05375 c -0.235,0.1025 -0.40125,0.2 -0.50375,0.3025 L 31.7675,10.84 c -0.1025,0.035 -0.2,0.06875 -0.3025,0.1025 -0.1325,0.06375 -0.23,0.0975 -0.2975,0.0975 H 31.11875 C 30.9475,11.10875 30.78125,11.1575 30.615,11.19125 30.3175,11.255 30.015,11.29 29.71625,11.29 H 29.365 c -0.03375,-0.035 -0.0975,-0.05 -0.2,-0.05 l 0.15125,-0.1025 C 29.4825,11.04 29.43375,10.77125 29.165,10.3425 28.73,9.7075 28.46625,9.22375 28.36375,8.8925 l -0.0975,-0.255 c -0.03375,-0.165 -0.1025,-0.33125 -0.2,-0.4975 -0.435,-1.00125 -0.56625,-2.03125 -0.4,-3.1 0,-0.36625 0.1025,-0.78125 0.3025,-1.25 L 28.0175,3.74 28.36875,3.09125 c 0.2,-0.46875 0.46375,-0.85 0.80125,-1.1525 0,-0.06375 0.04875,-0.13125 0.14625,-0.2 l 0.2,-0.14625 C 29.75125,1.42625 30.02,1.275 30.3175,1.1425 30.44875,1.04 30.58625,0.99125 30.7175,0.99125 30.85,0.92375 30.98625,0.875 31.11875,0.84 l 0.4,-0.04875 c 0.0975,-0.03375 0.215,-0.04875 0.34625,-0.04875 0.26875,0 0.5525,0.04875 0.855,0.14625 0.06375,0.035 0.13125,0.05375 0.2,0.05375 0.23,0 0.3325,-0.05375 0.2975,-0.15125 L 33.71625,1.24 33.46625,1.1375 C 33.6325,1.275 33.765,1.40625 33.8675,1.53875 33.50125,1.3725 33.135,1.275 32.76375,1.24 32.32875,1.10875 31.885,1.075 31.41625,1.1375 31.1475,1.20625 30.89875,1.29 30.66375,1.3875 29.6,1.89 28.8475,2.77375 28.4125,4.03875 27.98375,5.1375 27.96375,6.29 28.36375,7.49 c 0.035,0.20125 0.1025,0.41625 0.20125,0.65 0.13625,0.26875 0.2675,0.5325 0.4,0.80125 z"
   inkscape:connector-curvature="0" /><path
   id="path44"
   style="fill:#a6a6a6;fill-rule:evenodd;stroke-width:1.25;fill-opacity:1"
   d="m 32.715,0.44 c 0,0.1025 -0.45,0.2 -1.3475,0.3025 -0.2,0 -0.3525,0.02875 -0.45,0.0975 0.40125,-0.2975 0.61625,-0.56625 0.65,-0.8 0.23375,0.0675 0.435,0.11625 0.6,0.15125 C 32.36875,0.225 32.54875,0.3075 32.715,0.44 Z m 1.00125,0.8 -0.49875,-0.44875 c 0.1225,0.0925 0.24,0.19 0.3475,0.2975 z m -7.5,7.05125 c 0.26875,0.16625 0.46875,0.1325 0.6,-0.1025 0.1025,-1.19625 0.235,-2.23125 0.4,-3.1 0.26875,-1.5975 0.9475,-2.715 2.05125,-3.35 -0.4,0.33625 -0.80125,0.815 -1.20125,1.45 -0.635,0.9325 -0.86375,2.085 -0.6975,3.4525 0,0.2 0.18,0.98125 0.55125,2.34875 0.13125,0.4 0.18,0.66875 0.14625,0.8 0,0.1325 -0.13125,0.25 -0.4,0.3525 L 27.52,10.19125 C 27.2125,9.9125 26.9625,9.615 26.7675,9.2925 L 26.47,8.79 C 26.41125,8.69125 26.3625,8.59375 26.31875,8.49125 26.29875,8.4575 26.28375,8.4275 26.27,8.38875 26.245,8.36 26.23,8.325 26.21625,8.29125 Z"
   inkscape:connector-curvature="0" /><path
   id="path46"
   style="fill:#8c8c8c;fill-rule:evenodd;stroke-width:1.25;fill-opacity:1"
   d="m 34.365,2.33875 0.1025,0.3525 v 0.2975 l -0.1025,0.6 0.04875,0.40125 c -0.0975,0.5025 -0.36625,0.66875 -0.795,0.5025 0.2625,-0.13625 0.42875,-0.26875 0.4975,-0.4 0.06875,-0.16625 0.06875,-0.42 0,-0.7525 -0.03375,-0.5325 -0.24875,-1.06375 -0.65,-1.60125 -0.165,-0.2 -0.4,-0.36625 -0.6975,-0.49875 0.36625,0.035 0.7325,0.1325 1.09875,0.29875 C 33.765,1.40625 33.6325,1.275 33.46625,1.1425 l 0.25,0.0975 C 33.95,1.53875 34.165,1.91 34.365,2.33875 Z m -3.99875,8.15 L 30.3175,10.44 C 29.815,10.24 29.365,9.74125 28.965,8.94125 c 0.2,0.165 0.435,0.2975 0.7025,0.4 0.36625,0.0975 0.68375,0.13125 0.9475,0.0975 C 30.9475,9.41 31.29875,9.2925 31.665,9.0925 31.9675,8.955 32.13375,8.79 32.1675,8.58875 32.23125,8.49125 32.1975,8.30625 32.065,8.0375 L 32.4175,8.14 c 0.33125,0.13125 0.4975,0.4 0.4975,0.80125 0.03375,0.2975 -0.0975,0.56625 -0.4,0.8 -0.23,0.16625 -0.65,0.3525 -1.25,0.5475 -0.2,0.03375 -0.49875,0.1025 -0.89875,0.2 z"
   inkscape:connector-curvature="0" /><path
   id="path48"
   style="fill:#595959;fill-rule:evenodd;stroke-width:1.25;fill-opacity:1"
   d="m 33.61875,4.4925 c 0.42875,0.16625 0.6975,0 0.795,-0.5025 L 34.365,3.58875 l 0.1025,-0.6 V 2.69125 L 34.365,2.33875 h 0.04875 c 0.2,0.46875 0.3375,0.98625 0.40125,1.55375 l 0.15125,0.74625 c -0.035,0.1025 -0.035,0.2 0,0.3025 C 35,5.7425 34.8975,6.53875 34.6625,7.33875 34.365,8.14 33.8675,8.8925 33.16375,9.59 33.135,9.65875 33.1,9.7075 33.06625,9.74125 32.7975,10.005 32.54875,10.24 32.315,10.44 c -0.865,0.23375 -1.51875,0.24875 -1.94875,0.04875 0.4,-0.0975 0.69875,-0.16625 0.89875,-0.2 0.6,-0.2 1.015,-0.38125 1.25,-0.5475 0.2975,-0.23375 0.43375,-0.5025 0.4,-0.8 0,-0.40125 -0.16625,-0.67 -0.5025,-0.80125 L 32.065,8.0425 c -0.2975,0 -0.4975,-0.06875 -0.6,-0.2 C 31.235,7.705 31.03,7.49 30.86375,7.1925 L 30.76625,6.84125 C 30.435,6.04 30.5175,5.40625 31.015,4.94125 l 1.20125,-0.5025 c 0.20125,-0.13125 0.38625,-0.2 0.5525,-0.2 0.06375,0 0.33125,0.1025 0.79625,0.3025 z"
   inkscape:connector-curvature="0" /><path
   id="path50"
   style="fill:#d9d9d9;fill-rule:evenodd;stroke-width:1.25;fill-opacity:1"
   d="M 29.765,2.58875 31.065,2.09 c 0.37,0.1325 0.31625,0.36625 -0.1475,0.69875 C 30.44875,3.325 30.185,3.6375 30.1175,3.74 l -0.45,1.1475 c -0.0675,0.435 -0.13625,0.67 -0.2,0.70375 L 29.21875,5.64 C 28.91625,5.67375 28.75,5.60625 28.71625,5.44 28.515,4.94125 28.55,4.375 28.81875,3.74 Z"
   inkscape:connector-curvature="0" /><path
   id="path52"
   style="fill:#a6a6a6;fill-rule:evenodd;stroke-width:1.25;fill-opacity:1"
   d="m 40.5175,5.04 0.80125,0.1025 c -0.035,0.03375 -0.1375,0.0975 -0.30375,0.2 -0.0625,0.03375 -0.14625,0.03375 -0.24875,0 z m 0.80125,0.1025 0.8,0.04875 L 42.065,5.24 41.5675,5.5425 c -0.24,0.26375 -0.37125,0.6 -0.4,0.99625 L 40.615,6.69 V 6.5925 L 40.56625,6.69 39.365,6.73875 33.115,6.19125 C 32.98375,5.9575 32.96875,5.64 33.06625,5.24 33.16375,4.94125 33.36375,4.6925 33.6675,4.4925 l 1,0.14625 c -0.33625,0.035 -0.53125,0.06875 -0.6,0.1025 -0.16625,0.0975 -0.15125,0.23 0.04875,0.40125 0.2,0.26375 0.615,0.395 1.25,0.395 0.96625,0.06875 1.465,0.1025 1.49875,0.1025 1.00125,0.13125 1.685,0.13125 2.05125,0 0.2,-0.03375 0.35125,-0.06375 0.44875,-0.1025 0.1325,0 0.235,0.05375 0.3025,0.15125 0.0975,0.235 0.29875,0.3175 0.60125,0.24875 0.2975,-0.16625 0.43,-0.2 0.395,-0.0975 C 40.635,6.00625 40.65,6.1575 40.7175,6.29 40.85,5.92375 41.05,5.655 41.31875,5.48875 L 41.865,5.19125 Z"
   inkscape:connector-curvature="0" /><path
   id="path54"
   style="fill:#bfbfbf;fill-rule:evenodd;stroke-width:1.25"
   d="m 34.6675,4.63875 c 0,-0.06375 0.015,-0.0975 0.04875,-0.0975 L 40.415,5.04 h 0.1025 l 0.24875,0.3025 c 0.1025,0.02875 0.18625,0.02875 0.24875,0 0.16625,-0.1025 0.26875,-0.17125 0.30375,-0.2 L 41.865,5.19125 41.31875,5.48875 C 41.05,5.66 40.85,5.92375 40.7175,6.29 40.65,6.1575 40.635,6.00625 40.66375,5.84 40.69875,5.7425 40.56625,5.77625 40.26875,5.9425 39.96625,6.00625 39.765,5.92375 39.6675,5.69375 39.6,5.59125 39.4975,5.5425 39.365,5.5425 39.2675,5.57625 39.11625,5.61125 38.91625,5.64 c -0.36625,0.13625 -1.05,0.13625 -2.05125,0 -0.03375,0 -0.5325,-0.02875 -1.49875,-0.0975 -0.635,0 -1.05,-0.1325 -1.25,-0.4 -0.2,-0.16625 -0.215,-0.29875 -0.04875,-0.40125 0.06875,-0.03375 0.26375,-0.0675 0.6,-0.1025 z"
   inkscape:connector-curvature="0" /><path
   id="path56"
   style="fill:#8c8c8c;fill-rule:evenodd;stroke-width:1.25;fill-opacity:1"
   d="M 41.7675,8.69125 41.91375,8.74 41.865,8.69125 C 41.7675,8.6575 41.65,8.555 41.51375,8.38875 41.41625,8.2575 41.3475,8.07625 41.31375,7.8425 l -0.0975,-0.25375 c -0.035,-0.20125 -0.04875,-0.415 -0.04875,-0.65 v -0.4 c 0.02875,-0.39625 0.16,-0.7325 0.395,-0.99625 L 42.065,5.24 h 0.04875 c 0.1025,0 0.20125,0.03375 0.30375,0.1025 0.2975,0.13125 0.53125,0.3175 0.6975,0.54625 -0.2975,-0.16625 -0.5325,-0.0975 -0.6975,0.2 C 41.7825,6.7925 41.71875,7.6075 42.21625,8.54 l -0.3025,0.2 -0.04875,0.05 z"
   inkscape:connector-curvature="0" /><path
   id="path58"
   style="fill:#737373;fill-rule:evenodd;stroke-width:1.25;fill-opacity:1"
   d="m 40.615,6.69 0.5525,-0.15125 v 0.4 c 0,0.235 0.01375,0.44875 0.04875,0.65 l 0.1025,0.25375 c 0.03375,0.22875 0.0975,0.415 0.2,0.54625 -0.1375,0.035 -0.25375,0 -0.35125,-0.0975 L 40.76625,7.8425 C 40.635,7.6425 40.58125,7.25625 40.615,6.69 Z m -0.04875,0 L 40.3175,7.94 33.71625,7.3875 C 33.115,7.325 32.715,7.27625 32.515,7.24125 32.14875,7.13875 31.9,6.92375 31.7675,6.5925 31.435,5.92375 31.5825,5.3075 32.21625,4.74125 L 32.56875,4.39 33.6675,4.4925 c -0.29875,0.2 -0.49875,0.44875 -0.60125,0.7475 -0.0975,0.4 -0.0825,0.7175 0.04875,0.95125 l 6.25,0.5475 z"
   inkscape:connector-curvature="0" /><path
   id="path60"
   style="fill:#595959;fill-rule:evenodd;stroke-width:1.25;fill-opacity:1"
   d="M 40.56625,6.69 40.615,6.5925 V 6.69 c -0.02875,0.56625 0.02,0.9525 0.15125,1.1525 l 0.40125,0.44875 c 0.0975,0.0975 0.21375,0.1325 0.35125,0.0975 C 41.65,8.555 41.7675,8.6575 41.865,8.69125 L 41.91875,8.74 41.7675,8.69125 31.71875,7.58875 C 30.9475,7.4225 30.6,7.0075 30.66375,6.33875 30.83,5.005 31.435,4.375 32.46625,4.43875 L 32.56875,4.39 32.21625,4.74125 C 31.5825,5.3075 31.435,5.92375 31.7675,6.5925 31.9,6.92375 32.14875,7.13875 32.515,7.24125 c 0.2,0.035 0.6,0.08375 1.20125,0.14625 L 40.3175,7.94 Z"
   inkscape:connector-curvature="0" /><path
   id="path62"
   style="fill:#a6a6a6;fill-rule:evenodd;stroke-width:1.25;fill-opacity:1"
   d="m 43.26625,6.24 -0.1025,-0.24875 c 0.035,0.9325 -0.14625,1.63125 -0.54625,2.1 L 42.21625,8.54 C 41.71875,7.6075 41.7825,6.7925 42.4175,6.08875 c 0.165,-0.2975 0.4,-0.36625 0.6975,-0.2 C 42.94875,5.66 42.715,5.47375 42.4175,5.3425 42.315,5.27375 42.21625,5.24 42.11375,5.24 H 42.065 l 0.05375,-0.04875 c 0.1325,0 0.29875,0.04875 0.49875,0.15125 0.36625,0.23375 0.58125,0.5325 0.64875,0.8975 z"
   inkscape:connector-curvature="0" /><path
   id="path64"
   style="fill:#bfbfbf;fill-rule:evenodd;stroke-width:1.25;fill-opacity:1"
   d="m 41.865,8.79 0.04875,-0.05 0.3025,-0.2 0.40125,-0.44875 c 0.4,-0.46875 0.58125,-1.1675 0.54625,-2.1 L 43.26625,6.24 v 0.09875 c 0.1025,0.835 -0.0675,1.50375 -0.4975,2.00125 -0.235,0.235 -0.5175,0.38125 -0.855,0.45 z"
   inkscape:connector-curvature="0" />
<metadata
   id="metadata30"><rdf:RDF><cc:Work><dc:format>image/svg+xml</dc:format><dc:type
         rdf:resource="http://purl.org/dc/dcmitype/StillImage" /><cc:license
         rdf:resource="http://creativecommons.org/licenses/publicdomain/" /><dc:publisher><cc:Agent
           rdf:about="http://openclipart.org/"><dc:title>Openclipart</dc:title></cc:Agent></dc:publisher></cc:Work><cc:License
       rdf:about="http://creativecommons.org/licenses/publicdomain/"><cc:permits
         rdf:resource="http://creativecommons.org/ns#Reproduction" /><cc:permits
         rdf:resource="http://creativecommons.org/ns#Distribution" /><cc:permits
         rdf:resource="http://creativecommons.org/ns#DerivativeWorks" /></cc:License></rdf:RDF></metadata><path
   id="path913"
   style="fill:#ffffff;stroke:#000000;stroke-width:0.2;stroke-linecap:butt;stroke-linejoin:miter;stroke-miterlimit:4;stroke-dasharray:none;stroke-opacity:1"
   d="m 17.472916,0.74584864 c -0.374214,-0.0137209 -0.741115,0.12509743 -1.078998,0.27537676 -0.480839,0.2105369 -0.888828,0.5684802 -1.156604,1.0204621 -0.434565,0.6568899 -0.782883,1.4582543 -0.608783,2.2594337 0.164679,0.7920627 0.524383,1.5479361 1.073207,2.145776 0.252728,0.2396647 0.542639,0.44435 0.851034,0.6055109 0.0745,-0.1157727 -0.219948,-0.364893 -0.288462,-0.5227861 -0.296197,-0.4491872 -0.499398,-0.9183582 -0.684509,-1.4245136 -0.125902,-0.5132046 -0.09665,-1.020041 -0.04491,-1.5335122 0.05175,-0.5134711 0.202059,-0.9427049 0.49032,-1.4465738 0.288261,-0.5038688 0.611819,-0.8087393 0.878581,-0.9664982 0.266763,-0.1577589 0.561342,-0.2961889 0.569121,-0.41267556 z"
   sodipodi:nodetypes="cccccccczzzc" /><path
   d="M 18.322356,0.58194269 C 18.200226,0.35225361 17.634684,0.6520304 17.243358,0.86391641 16.852032,1.0758024 16.428012,1.3458846 16.086755,1.9088251 c -0.341257,0.5629403 -0.629507,1.5278971 -0.608783,2.3135614 0.02072,0.7856645 0.400483,1.7065562 0.70656,2.2039218 0.306077,0.4973655 0.585782,1.0056384 0.852067,0.8349381 C 17.302884,7.0905462 16.933279,6.9435134 16.820458,6.5734558 16.707637,6.2033981 16.464515,5.5666664 16.366873,5.038694 16.269233,4.5107216 16.155524,3.9412657 16.239688,3.4232999 c 0.08416,-0.517966 0.297538,-0.9666668 0.595813,-1.4029733 0.298275,-0.4363064 0.930944,-0.9080758 1.179601,-1.14689068 0.248657,-0.23881483 0.429384,-0.0618042 0.307254,-0.29149323 z"
   style="fill:#ffffff;stroke:#000000;stroke-width:0.202382;stroke-linecap:butt;stroke-linejoin:miter;stroke-miterlimit:4;stroke-dasharray:none;stroke-opacity:1"
   id="path913-7"
   sodipodi:nodetypes="zzzzzzzzzzzz" /><path
   sodipodi:nodetypes="zzzzzzzzzzzz"
   id="path913-7-9"
   style="fill:#ffffff;stroke:#000000;stroke-width:0.203223;stroke-linecap:butt;stroke-linejoin:miter;stroke-miterlimit:4;stroke-dasharray:none;stroke-opacity:1"
   d="M 18.977473,0.60321479 C 18.814857,0.38913218 18.318727,0.76567681 17.939752,0.99948091 17.560777,1.233285 17.124406,1.4854705 16.783149,2.0531077 16.441892,2.6207451 16.153645,3.593753 16.174366,4.3859725 c 0.02072,0.7922195 0.415335,1.727487 0.70656,2.2223102 0.291225,0.494823 0.51109,0.9531197 0.769185,0.8110472 C 17.908205,7.2772575 17.608198,7.1271213 17.516852,6.756658 17.425506,6.3861946 17.160909,5.7414683 17.063267,5.2090908 16.965625,4.6767133 16.851919,4.1025061 16.936082,3.5802185 17.020245,3.0579311 17.23362,2.6054864 17.531895,2.1655396 17.83017,1.7255928 18.48506,1.2849234 18.711496,1.0090799 18.937932,0.73323621 19.14009,0.81729743 18.977473,0.60321479 Z" /><path
   d="m 19.698177,0.5828262 c -0.162616,-0.21537845 -0.784228,0.29927279 -0.983573,0.4474226 -0.199345,0.1481499 -0.860628,0.5517706 -1.201885,1.1228437 -0.341257,0.5710731 -0.649356,1.8401505 -0.608783,2.3469853 0.04057,0.5068347 0.415335,1.7379432 0.70656,2.2357614 0.291225,0.4978183 0.51109,0.9588889 0.769185,0.8159565 C 18.637775,7.4088633 18.337768,7.2578183 18.246422,6.8851126 18.155076,6.5124068 17.890479,5.8637782 17.792837,5.3281783 17.695195,4.7925783 17.581489,4.2148956 17.665652,3.6894468 17.749815,3.1639979 17.96319,2.7088147 18.261465,2.266205 18.55974,1.8235952 19.118333,1.3413566 19.441066,1.1027451 19.763799,0.86413359 19.860794,0.7982046 19.698177,0.5828262 Z"
   style="fill:#ffffff;stroke:#000000;stroke-width:0.203838;stroke-linecap:butt;stroke-linejoin:miter;stroke-miterlimit:4;stroke-dasharray:none;stroke-opacity:1"
   id="path913-7-9-7"
   sodipodi:nodetypes="zzzzzzzzzzzz" /><path
   sodipodi:nodetypes="zzzzzzzzzzzz"
   id="path913-7-9-7-3"
   style="fill:#ffffff;stroke:#000000;stroke-width:0.204345;stroke-linecap:butt;stroke-linejoin:miter;stroke-miterlimit:4;stroke-dasharray:none;stroke-opacity:1"
   d="M 20.393285,0.62388132 C 20.230669,0.40743162 19.609057,0.9246427 19.409712,1.0735295 19.210367,1.2224162 18.549084,1.6280445 18.207827,2.201958 17.86657,2.7758715 17.637349,4.0823892 17.677922,4.5917449 c 0.04057,0.5093558 0.336457,1.7154594 0.627682,2.2157537 0.291225,0.5002943 0.51109,0.9636583 0.769185,0.8200149 C 19.332883,7.4838702 19.032876,7.332074 18.94153,6.9575145 18.850184,6.5829549 18.585587,5.9311 18.487945,5.3928362 18.390303,4.8545723 18.276597,4.2740161 18.36076,3.7459538 18.444923,3.2178914 18.658298,2.7604442 18.956573,2.315633 19.254848,1.8708218 19.813441,1.3861847 20.136174,1.1463863 20.458907,0.90658801 20.555902,0.84033108 20.393285,0.62388132 Z" /><path
   d="m 21.203001,0.7051467 c -0.162616,-0.22286417 -0.658746,0.16912612 -1.037721,0.4125208 -0.378975,0.2433946 -0.815346,0.5059246 -1.156603,1.096846 -0.341257,0.5909216 -0.629504,1.6038419 -0.608783,2.4285578 0.02072,0.8247161 0.415335,1.7983478 0.70656,2.3134684 0.291225,0.5151204 0.51109,0.9922163 0.769185,0.844316 C 20.133733,7.6529556 19.833726,7.4966609 19.74238,7.1110013 19.651034,6.7253417 19.414256,6.0486985 19.288795,5.4999536 19.163334,4.9512087 19.039642,4.3981682 19.232007,3.6912712 19.424371,2.9843742 19.459148,2.7895506 19.757423,2.3315573 20.055698,1.8735641 20.710588,1.4148187 20.937024,1.1276602 21.16346,0.84050152 21.365618,0.92801085 21.203001,0.7051467 Z"
   style="fill:#ffffff;stroke:#000000;stroke-width:0.207349;stroke-linecap:butt;stroke-linejoin:miter;stroke-miterlimit:4;stroke-dasharray:none;stroke-opacity:1"
   id="path913-7-9-1"
   sodipodi:nodetypes="zzzzzzzzzzzz" /><path
   sodipodi:nodetypes="zzzzzzzzzzzz"
   id="path913-7-9-7-2"
   style="fill:#ffffff;stroke:#000000;stroke-width:0.207908;stroke-linecap:butt;stroke-linejoin:miter;stroke-miterlimit:4;stroke-dasharray:none;stroke-opacity:1"
   d="M 21.923705,0.71185197 C 21.761089,0.48778807 21.139477,1.0231933 20.940132,1.1773174 20.740787,1.3314417 20.079504,1.7513389 19.738247,2.3454412 19.39699,2.9395435 19.088891,4.259798 19.129464,4.7870716 c 0.04057,0.5272734 0.415335,1.8080279 0.70656,2.3259212 0.291225,0.5178935 0.51109,0.9975573 0.769185,0.8488609 C 20.863303,7.8131574 20.563299,7.6560213 20.47195,7.2682859 20.3806,6.8805502 20.116007,6.2057648 20.018365,5.6485662 19.920725,5.0913675 19.807017,4.490389 19.89118,3.9437509 19.97534,3.3971126 20.188718,2.9235736 20.486993,2.463115 20.785268,2.0026565 21.343861,1.500971 21.666594,1.2527372 21.989327,1.0045035 22.086322,0.93591578 21.923705,0.71185197 Z" /><path
   d="M 22.618813,0.77592174 C 22.456197,0.55268354 21.834585,1.0861158 21.63524,1.2396721 21.435895,1.3932283 20.774612,1.8115782 20.433355,2.4034913 20.092098,2.9954043 19.862877,4.342898 19.90345,4.8682284 c 0.04057,0.5253307 0.336457,1.769261 0.627682,2.2852459 0.291225,0.5159849 0.51109,0.9938812 0.769185,0.8457328 C 21.558411,7.8510588 21.258404,7.6945018 21.167058,7.3081951 21.075712,6.9218883 20.811115,6.2495895 20.713473,5.6944442 20.615831,5.1392988 20.502125,4.5405348 20.586288,3.9959111 20.670448,3.4512871 20.883826,2.9794932 21.182101,2.5207314 21.480376,2.0619697 22.038969,1.562133 22.361702,1.3148139 22.684435,1.0674948 22.78143,0.99915989 22.618813,0.77592174 Z"
   style="fill:#ffffff;stroke:#000000;stroke-width:0.207524;stroke-linecap:butt;stroke-linejoin:miter;stroke-miterlimit:4;stroke-dasharray:none;stroke-opacity:1"
   id="path913-7-9-7-3-9"
   sodipodi:nodetypes="zzzzzzzzzzzz" /><path
   d="M 23.334815,0.80998763 C 23.172199,0.58152724 22.550587,1.1274379 22.351242,1.2845862 22.151897,1.4417347 21.490614,1.8698709 21.149357,2.4756305 20.8081,3.08139 20.500001,4.42755 20.540574,4.9651696 c 0.04057,0.5376193 0.415335,1.8435043 0.70656,2.3715595 0.291225,0.5280551 0.51109,1.0171309 0.769185,0.8655172 C 22.274413,8.0506316 21.974409,7.8904124 21.88306,7.4950693 21.79171,7.0997256 21.527117,6.4116998 21.429475,5.8435681 21.331835,5.2754363 21.218127,4.6626656 21.30229,4.1053016 21.38645,3.5479373 21.599828,3.0651068 21.898103,2.5956132 22.196378,2.1261198 22.754971,1.6145904 23.077704,1.3614859 23.400437,1.1083814 23.497432,1.0384479 23.334815,0.80998763 Z"
   style="fill:#ffffff;stroke:#000000;stroke-width:0.209938;stroke-linecap:butt;stroke-linejoin:miter;stroke-miterlimit:4;stroke-dasharray:none;stroke-opacity:1"
   id="path913-7-9-7-2-3"
   sodipodi:nodetypes="zzzzzzzzzzzz" /><path
   sodipodi:nodetypes="zzzzzzzzzzzz"
   id="path913-7-9-7-3-9-1"
   style="fill:#ffffff;stroke:#000000;stroke-width:0.210617;stroke-linecap:butt;stroke-linejoin:miter;stroke-miterlimit:4;stroke-dasharray:none;stroke-opacity:1"
   d="M 24.029923,0.85022406 C 23.867307,0.62028043 23.245695,1.1697355 23.04635,1.3279042 22.847005,1.4860728 22.185722,1.9169887 21.844465,2.5266813 21.503208,3.1363736 21.273987,4.5243422 21.31456,5.065452 c 0.04057,0.5411102 0.336457,1.8224047 0.627682,2.3538883 0.291225,0.5314833 0.51109,1.0237351 0.769185,0.871136 C 22.969521,8.1378784 22.669517,7.9766188 22.578168,7.5787084 22.486818,7.180798 22.222225,6.4883053 22.124583,5.916485 22.026943,5.3446646 21.913235,4.7279154 21.997398,4.1669328 c 0.08416,-0.560983 0.297538,-1.0469482 0.595813,-1.5194899 0.298275,-0.4725417 0.856868,-0.987392 1.179601,-1.2421398 0.322733,-0.254748 0.419728,-0.3251353 0.257111,-0.55507904 z" /><path
   sodipodi:nodetypes="zzzzzzzzzzzz"
   id="path913-7-9-7-2-3-9"
   style="fill:#ffffff;stroke:#000000;stroke-width:0.211988;stroke-linecap:butt;stroke-linejoin:miter;stroke-miterlimit:4;stroke-dasharray:none;stroke-opacity:1"
   d="M 24.730463,0.86904654 C 24.567166,0.63657958 23.947185,1.1950196 23.74831,1.3558343 23.549435,1.5166493 22.889432,1.95512 22.549983,2.5737629 c -0.339448,0.6186428 -0.64353,1.9921155 -0.601354,2.5401644 0.04217,0.5480485 0.420833,1.8784582 0.713632,2.4160216 0.292799,0.5375634 0.514122,1.0355915 0.771764,0.880248 0.25764,-0.1553444 -0.04284,-0.3178293 -0.135368,-0.7206617 -0.09253,-0.402833 -0.359174,-1.1035836 -0.45851,-1.6825761 -0.09933,-0.5789928 -0.21487,-1.2034532 -0.13237,-1.7719988 0.0825,-0.5685459 0.294434,-1.0614737 0.591307,-1.5410513 0.296873,-0.4795774 0.853938,-1.0027771 1.175914,-1.2617916 0.321977,-0.2590146 0.418763,-0.330604 0.255465,-0.56307086 z" /><path
   d="M 25.375003,0.89352317 C 25.208599,0.65984942 24.596172,1.2349041 24.399474,1.4007791 24.202776,1.5666539 23.54872,2.020517 23.217609,2.6528589 c -0.331111,0.6323419 -0.537308,2.062826 -0.487776,2.6183645 0.04953,0.555539 0.366603,1.8676985 0.666595,2.409202 0.299991,0.5415031 0.527981,1.0438586 0.783514,0.8827382 0.255532,-0.161119 -0.0471,-0.3219229 -0.145033,-0.7294275 -0.09793,-0.4075046 -0.37396,-1.1149496 -0.481062,-1.701113 -0.1071,-0.5861633 -0.23101,-1.2182437 -0.156152,-1.79627 0.07485,-0.5780266 0.280154,-1.0810765 0.570561,-1.5717307 0.290407,-0.4906542 0.840396,-1.0290975 1.158866,-1.2962844 0.318469,-0.2671874 0.414285,-0.3411409 0.247881,-0.57481483 z"
   style="fill:#ffffff;stroke:#000000;stroke-width:0.21355;stroke-linecap:butt;stroke-linejoin:miter;stroke-miterlimit:4;stroke-dasharray:none;stroke-opacity:1"
   id="path913-7-9-7-3-9-1-4"
   sodipodi:nodetypes="zzzzzzzzzzzz" /><path
   sodipodi:nodetypes="zzzzzzzzzzzz"
   id="path913-7-9-7-3-9-1-4-7"
   style="fill:#ffffff;stroke:#000000;stroke-width:0.214476;stroke-linecap:butt;stroke-linejoin:miter;stroke-miterlimit:4;stroke-dasharray:none;stroke-opacity:1"
   d="M 26.124219,0.93531804 C 25.957815,0.69961201 25.345388,1.279668 25.14869,1.4469857 24.951992,1.6143031 24.297936,2.0721135 23.966825,2.7099551 23.635714,3.3477966 23.429517,4.7907219 23.479049,5.351092 c 0.04953,0.5603706 0.366603,1.8839423 0.666595,2.4301554 0.299991,0.5462126 0.527981,1.0529372 0.783514,0.8904156 0.255532,-0.1625204 -0.0471,-0.3247228 -0.145033,-0.7357715 -0.09793,-0.4110489 -0.37396,-1.1246466 -0.481062,-1.715908 -0.1071,-0.5912613 -0.23101,-1.2288391 -0.156152,-1.8118925 0.07485,-0.5830539 0.280154,-1.0904789 0.570561,-1.5854004 0.290407,-0.4949215 0.840396,-1.0380478 1.158866,-1.3075585 0.318469,-0.2695111 0.414285,-0.3441078 0.247881,-0.57981406 z" /><path
   d="m 26.99872,1.0214564 c -0.162349,-0.23951471 -0.7846,0.3316258 -0.984128,0.4960132 -0.199529,0.1643871 -0.861312,0.6121063 -1.203277,1.2462705 -0.341965,0.6341641 -0.5728,2.078485 -0.532855,2.6417167 0.03994,0.5632321 0.334339,1.8971432 0.624947,2.45065 0.290607,0.5535064 0.509899,1.0660971 0.768171,0.9075756 C 25.92985,8.6051622 25.630037,8.4369722 25.539146,8.0227221 25.448259,7.608472 25.184471,6.8874193 25.087493,6.2921572 c -0.09697,-0.5952618 -0.0588,-1.2211533 0.02601,-1.8049221 0.08481,-0.5837693 0.339147,-1.2682737 0.637971,-1.7597426 0.298824,-0.4914688 0.66646,-0.8638531 0.989489,-1.1286143 0.323028,-0.2647618 0.420105,-0.3379067 0.257756,-0.5774218 z"
   style="fill:#ffffff;stroke:#000000;stroke-width:0.21487;stroke-linecap:butt;stroke-linejoin:miter;stroke-miterlimit:4;stroke-dasharray:none;stroke-opacity:1"
   id="path913-7-9-7-3-9-1-4-7-8"
   sodipodi:nodetypes="zzzzzzzzzzzz" /><path
   sodipodi:nodetypes="zzzzzzzzzzzz"
   id="path913-7-9-7-3-9-1-4-7-8-4"
   style="fill:#ffffff;stroke:#000000;stroke-width:0.217408;stroke-linecap:butt;stroke-linejoin:miter;stroke-miterlimit:4;stroke-dasharray:none;stroke-opacity:1"
   d="M 27.868922,1.131293 C 27.711118,0.88313923 27.265605,1.197988 27.063011,1.3625761 26.860415,1.5271638 25.997371,2.4030916 25.643503,3.0459106 25.289635,3.6887294 24.9875,4.9033972 25.016815,5.480647 c 0.02931,0.5772501 0.160091,1.9645485 0.44021,2.536462 0.280118,0.5719131 0.564052,1.048396 0.82527,0.8908945 C 26.543513,8.7505032 26.172578,8.6250592 26.089514,8.1993658 26.006454,7.7736725 25.756312,7.030756 25.670577,6.4196699 25.584847,5.8085839 25.715022,5.2300434 25.810835,4.6340707 25.906645,4.0380973 26.10688,3.6093325 26.414923,3.1117791 26.722966,2.6142258 27.127192,2.0546646 27.412289,1.7253802 27.697386,1.3960959 27.868922,1.131293 27.868922,1.131293 Z" /><path
   style="fill:#ffffff;stroke:#000000;stroke-width:0.2;stroke-linecap:butt;stroke-linejoin:miter;stroke-miterlimit:4;stroke-dasharray:none;stroke-opacity:1"
   d="m 8.0745004,1.5879086 c 0.030089,0.1814187 0.4673634,0.2119217 0.8263976,0.4058987 0.3590341,0.1939771 0.6400116,0.5503853 1.0039258,1.028571 0.3639142,0.4781857 0.8107752,1.0780985 1.6547732,1.7050429 0.843999,0.6269444 2.084717,1.281374 2.945401,1.6588167 0.860685,0.3774426 1.341319,0.4782666 1.477597,0.4426423 0.136278,-0.035624 -0.07175,-0.208352 -0.246666,-0.3777087 C 15.561009,6.2818147 15.419374,6.1156698 15.296691,5.9479006 15.174009,5.7801313 15.070488,5.6106537 14.849577,5.4613785 14.628666,5.3121033 14.280035,5.180021 13.893813,4.9756921 13.507592,4.7713633 13.078923,4.4926376 12.679976,4.1823783 12.28103,3.872119 11.911952,3.5301394 11.567297,3.1995447 11.222641,2.86895 10.902463,2.5497219 10.642647,2.2850731 10.382832,2.0204244 10.183423,1.8103422 10.01887,1.6402875 9.8543184,1.4702327 9.7246069,1.3402384 9.5276103,1.1972367 9.3306136,1.0542351 9.0661641,0.89854154 8.7443307,0.98641908 8.4224973,1.0742966 8.0444117,1.4064899 8.0745004,1.5879086 Z"
   id="path1084"
   inkscape:path-effect="#path-effect1086"
   inkscape:original-d="m 7.66625,1.73875 c 0.4382746,0.031503 0.8755492,0.062006 1.3118239,0.091509 0.2819887,0.3574225 0.5629662,0.7138307 0.8429494,1.069246 0.4478787,0.6009368 0.8947397,1.2008496 1.3406097,1.7997744 1.241768,0.6554557 2.482486,1.3098852 3.722228,1.9633279 0.481663,0.1018301 0.962297,0.2026542 1.441961,0.3024844 C 16.118789,6.7933566 15.910766,6.6206285 15.701738,6.4468972 15.561094,6.2817421 15.419459,6.1155972 15.276816,5.9484423 15.174292,5.7799582 15.070772,5.6104805 14.96625,5.44 14.629168,5.3107795 14.279829,5.1805643 13.935119,5.0493464 13.507432,4.7716094 13.078763,4.4928834 12.649085,4.2131519 12.280993,3.8721585 11.911916,3.5301787 11.541831,3.1871921 11.22264,2.8689513 10.902461,2.5497234 10.581276,2.229489 10.382859,2.0203989 10.183449,1.8103171 9.9830362,1.5992312 9.8543195,1.4702316 9.724608,1.3402373 9.5938939,1.2092403 9.3304338,1.0545405 9.0659843,0.89884694 8.8005295,0.74215026 8.4234288,1.0753568 8.0453432,1.4075501 7.66625,1.73875 Z"
   sodipodi:nodetypes="ccccccccccccccccc" /><path
   style="fill:#ffffff;stroke:#000000;stroke-width:0.2;stroke-linecap:butt;stroke-linejoin:miter;stroke-opacity:1;stroke-miterlimit:4;stroke-dasharray:none"
   d="M 6.536522,4.1598637 C 6.2916342,4.2694076 5.8013983,4.4887012 5.3706104,4.5135815 4.9398226,4.5384618 4.5677531,4.3681779 4.1608249,4.0607373 3.7538966,3.7532967 3.3123439,3.3082682 2.7886473,2.8778739 2.2649507,2.4474795 1.5166156,1.9343317 0.90647261,1.6153626 0.29632964,1.2963936 -0.24682652,1.1232077 -0.59003541,0.98892244 -0.93324429,0.85463716 -1.0764452,0.75887036 -1.1483103,0.67964336 c -0.071865,-0.079227 -0.071229,-0.14212844 0.012003,-0.3375353 0.083231,-0.19540686 0.24923859,-0.5227071 0.52978036,-0.61195197 0.28054177,-0.0892449 0.67419414,0.0595026 0.96152548,0.20631304 0.28733134,0.14681044 0.48329517,0.30310777 0.73161606,0.48356981 0.2483209,0.18046205 0.5563651,0.39109588 0.9838478,0.65008126 0.4274826,0.2589854 0.9743361,0.566423 1.4578386,0.8808856 0.4835024,0.3144625 0.9036996,0.635747 1.2359549,0.9505436 0.3322554,0.3147966 0.5767909,0.6228378 0.8783292,0.8021719 0.3015384,0.1793341 0.6624262,0.2312681 0.8634664,0.2587628 0.2010401,0.027495 0.2435791,0.030815 0.2626265,0.041794 0.019047,0.010979 0.015817,0.028906 0.014274,0.037473 -0.00154,0.00857 -0.00154,0.00857 -0.2464296,0.1181131 z"
   id="path1088"
   inkscape:path-effect="#path-effect1090"
   inkscape:original-d="M 6.7814097,4.0503199 C 6.2921737,4.2706136 5.8019377,4.4899072 5.3107018,4.7082009 4.9396174,4.5389102 4.5675479,4.3686263 4.194471,4.1973391 3.7539006,3.7532928 3.3123478,3.3082643 2.8697862,2.8622269 2.2020941,2.5391448 1.516469,1.9345454 0.83831039,1.4692047 0.2961325,1.2970119 -0.24702366,1.123826 -0.79119069,0.94963667 -0.93339736,0.85486604 -1.0765983,0.75909924 -1.2208021,0.66233052 c 0.00164,-0.0619039 0.00228,-0.12480531 0.00191,-0.18870796 0.1670142,-0.32631333 0.33302179,-0.65361357 0.4980327,-0.98192035 0.39466812,0.14975341 0.78832049,0.29850088 1.18098073,0.44625132 0.17738237,0.15137655 0.3780733,0.30174709 0.56560997,0.45112064 0.3090565,0.21164229 0.6171006,0.42227616 0.924151,0.63191423 0.5478753,0.3084499 1.0947288,0.6158875 1.6405932,0.9223312 0.4212139,0.3222973 0.8414111,0.6435817 1.2606167,0.9638726 0.2455452,0.3090534 0.4900806,0.6170946 0.733621,0.9241419 0.3594299,0.051582 0.720177,0.104494 1.0787655,0.155241 0.043541,0.00432 0.08608,0.00764 0.1276195,0.00996 -0.00223,0.018928 -0.00546,0.036855 -0.00969,0.053782 z" /></svg>
